<?xml version="1.0" encoding="UTF-8" standalone="no"?><!DOCTYPE svg PUBLIC "-//W3C//DTD SVG 1.1//EN" "http://www.w3.org/Graphics/SVG/1.1/DTD/svg11.dtd"><svg width="190px" height="64px" version="1.1" xmlns="http://www.w3.org/2000/svg" xmlns:xlink="http://www.w3.org/1999/xlink" xml:space="preserve" xmlns:serif="http://www.serif.com/" style="fill-rule:evenodd;clip-rule:evenodd;stroke-linejoin:round;stroke-miterlimit:2;"><path d="M189.935,9.904C189.935,4.434 185.501,0 180.031,0L9.904,0C4.434,0 -0,4.434 0,9.904L0,53.467C-0,58.937 4.434,63.371 9.904,63.371L180.031,63.371C185.501,63.371 189.935,58.937 189.935,53.467L189.935,9.904Z" style="fill:#0226b9;"/><path d="M39.903,26.396C39.903,24.248 40.446,22.465 41.533,21.046C42.62,19.628 44.072,18.587 45.888,17.924C47.705,17.261 49.726,16.93 51.954,16.93C54.154,16.93 56.15,17.268 57.939,17.944C59.729,18.62 61.154,19.634 62.215,20.987C63.276,22.339 63.806,23.996 63.806,25.958C63.806,32.295 59.802,35.464 51.795,35.464C50.469,35.464 49.362,35.709 48.474,36.2C47.585,36.69 47.141,37.665 47.141,39.123L63.607,39.123L63.607,46.004L39.386,46.004L39.386,39.322C39.386,32.507 43.522,29.1 51.795,29.1C52.802,29.1 53.724,28.862 54.559,28.384C55.394,27.907 55.812,27.138 55.812,26.078C55.812,25.15 55.44,24.46 54.698,24.009C53.956,23.559 53.041,23.333 51.954,23.333C49.382,23.333 48.003,24.354 47.817,26.396L39.903,26.396Z" style="fill:#fff;fill-rule:nonzero;"/><path d="M67.704,29.896C67.704,26.9 68.287,24.44 69.454,22.518C70.62,20.596 72.185,19.19 74.147,18.302C76.109,17.414 78.323,16.97 80.789,16.97C83.255,16.97 85.455,17.434 87.391,18.362C89.327,19.29 90.858,20.722 91.985,22.657C93.112,24.593 93.675,27.006 93.675,29.896L93.675,33.793C93.675,36.737 93.105,39.183 91.965,41.131C90.825,43.08 89.287,44.512 87.351,45.427C85.416,46.342 83.255,46.799 80.868,46.799C78.482,46.799 76.294,46.355 74.306,45.467C72.317,44.578 70.72,43.16 69.513,41.211C68.307,39.262 67.704,36.803 67.704,33.833L67.704,29.896ZM75.658,33.833C75.658,35.928 76.115,37.506 77.03,38.566C77.945,39.627 79.171,40.157 80.709,40.157C82.221,40.157 83.447,39.627 84.388,38.566C85.329,37.506 85.8,35.928 85.8,33.833L85.8,29.936C85.8,27.92 85.343,26.396 84.428,25.362C83.513,24.328 82.3,23.811 80.789,23.811C79.277,23.811 78.044,24.314 77.09,25.322C76.135,26.329 75.658,27.867 75.658,29.936L75.658,33.833Z" style="fill:#fff;fill-rule:nonzero;"/><path d="M98.01,26.396C98.01,24.248 98.554,22.465 99.641,21.046C100.728,19.628 102.18,18.587 103.996,17.924C105.812,17.261 107.834,16.93 110.061,16.93C112.262,16.93 114.257,17.268 116.047,17.944C117.837,18.62 119.262,19.634 120.322,20.987C121.383,22.339 121.913,23.996 121.913,25.958C121.913,32.295 117.91,35.464 109.902,35.464C108.576,35.464 107.469,35.709 106.581,36.2C105.693,36.69 105.249,37.665 105.249,39.123L121.715,39.123L121.715,46.004L97.493,46.004L97.493,39.322C97.493,32.507 101.629,29.1 109.902,29.1C110.91,29.1 111.831,28.862 112.666,28.384C113.502,27.907 113.919,27.138 113.919,26.078C113.919,25.15 113.548,24.46 112.806,24.009C112.063,23.559 111.148,23.333 110.061,23.333C107.489,23.333 106.11,24.354 105.925,26.396L98.01,26.396Z" style="fill:#fff;fill-rule:nonzero;"/><path d="M133.089,28.504L137.902,28.504C138.962,28.504 139.897,28.331 140.706,27.987C141.515,27.642 141.919,27.019 141.919,26.117C141.919,25.375 141.554,24.758 140.825,24.268C140.096,23.777 139.122,23.532 137.902,23.532C136.735,23.532 135.741,23.764 134.919,24.228C134.097,24.692 133.686,25.401 133.686,26.356L125.891,26.356C125.944,24.129 126.547,22.306 127.7,20.887C128.854,19.469 130.332,18.441 132.135,17.805C133.938,17.169 135.86,16.85 137.902,16.85C139.917,16.85 141.846,17.155 143.689,17.765C145.532,18.375 147.05,19.349 148.243,20.688C149.436,22.027 150.032,23.731 150.032,25.799C150.032,26.939 149.688,28.026 148.998,29.061C148.309,30.095 147.381,30.85 146.214,31.328C147.805,31.937 148.952,32.786 149.655,33.873C150.357,34.96 150.709,36.22 150.709,37.651C150.709,39.746 150.059,41.456 148.76,42.782C147.461,44.108 145.836,45.062 143.888,45.646C141.939,46.229 139.93,46.521 137.862,46.521C135.767,46.521 133.779,46.183 131.896,45.506C130.014,44.83 128.476,43.743 127.283,42.245C126.089,40.747 125.493,38.845 125.493,36.538L133.447,36.538C133.447,37.731 133.918,38.606 134.859,39.163C135.801,39.72 136.947,39.998 138.3,39.998C139.36,39.998 140.282,39.746 141.064,39.242C141.846,38.738 142.237,38.049 142.237,37.174C142.237,36.458 141.985,35.789 141.481,35.166C140.978,34.543 139.917,34.231 138.3,34.231L133.089,34.231L133.089,28.504Z" style="fill:#fff;fill-rule:nonzero;"/></svg>