<?xml version="1.0" encoding="UTF-8" standalone="no"?><!DOCTYPE svg PUBLIC "-//W3C//DTD SVG 1.1//EN" "http://www.w3.org/Graphics/SVG/1.1/DTD/svg11.dtd"><svg width="168px" height="168px" version="1.1" xmlns="http://www.w3.org/2000/svg" xmlns:xlink="http://www.w3.org/1999/xlink" xml:space="preserve" xmlns:serif="http://www.serif.com/" style="fill-rule:evenodd;clip-rule:evenodd;stroke-linejoin:round;stroke-miterlimit:2;"><path d="M7.538,167.519C3.375,167.519 -0,164.144 0,159.981C0,154.087 0,146.886 0,146.886L0,127.489C8.87,126.237 17.055,121.848 23.018,115.062C26.818,109.398 33.211,105.982 40.044,105.982C46.898,105.982 53.31,109.419 57.106,115.116C63.647,123.092 73.438,127.728 83.76,127.728C94.081,127.728 103.872,123.092 110.413,115.117C114.208,109.42 120.621,105.982 127.475,105.982C134.308,105.982 140.701,109.398 144.502,115.062C150.464,121.849 158.649,126.237 167.519,127.489L167.519,146.886C167.519,146.886 167.519,154.087 167.519,159.981C167.519,161.98 166.725,163.897 165.311,165.311C163.897,166.725 161.98,167.519 159.981,167.519C132.151,167.519 35.368,167.519 7.538,167.519ZM0,112.68L0,92.135C0,73.756 15.124,58.632 33.504,58.632L72.36,58.632C73.162,58.632 73.931,58.313 74.498,57.746C75.065,57.179 75.384,56.41 75.384,55.608C75.384,55.608 75.384,48.937 75.384,44.895C75.384,44.095 75.701,43.328 76.267,42.763C76.832,42.197 77.599,41.88 78.399,41.88L89.12,41.88C89.92,41.88 90.687,42.197 91.252,42.763C91.818,43.328 92.135,44.095 92.135,44.895L92.135,55.608C92.135,56.41 92.454,57.179 93.021,57.746C93.588,58.313 94.357,58.632 95.159,58.632L134.015,58.632C152.395,58.632 167.519,73.756 167.519,92.135L167.519,112.68C162.37,111.364 157.729,108.464 154.279,104.351C154.267,104.336 154.254,104.321 154.241,104.306C147.7,96.245 137.856,91.555 127.475,91.555C117.154,91.555 107.363,96.191 100.822,104.167C97.026,109.864 90.614,113.302 83.76,113.302C76.905,113.302 70.494,109.865 66.697,104.168C60.156,96.191 50.365,91.555 40.044,91.555C29.663,91.555 19.819,96.245 13.278,104.306C13.265,104.321 13.252,104.336 13.24,104.351C9.79,108.464 5.149,111.364 0,112.68ZM83.76,35.095C76.637,35.095 70.777,29.235 70.777,22.113C70.777,11.726 83.76,-0 83.76,-0C83.76,-0 96.742,11.726 96.742,22.113C96.742,29.235 90.882,35.095 83.76,35.095Z" style="fill:url(#_Linear1);"/><defs><linearGradient id="_Linear1" x1="0" y1="0" x2="1" y2="0" gradientUnits="userSpaceOnUse" gradientTransform="matrix(1.02576e-14,-167.519,167.519,1.02576e-14,83.7595,167.519)"><stop offset="0" style="stop-color:#016ae9;stop-opacity:1"/><stop offset="1" style="stop-color:#76eeff;stop-opacity:1"/></linearGradient></defs></svg>