<?xml version="1.0" encoding="UTF-8" standalone="no"?><!DOCTYPE svg PUBLIC "-//W3C//DTD SVG 1.1//EN" "http://www.w3.org/Graphics/SVG/1.1/DTD/svg11.dtd"><svg width="168px" height="163px" version="1.1" xmlns="http://www.w3.org/2000/svg" xmlns:xlink="http://www.w3.org/1999/xlink" xml:space="preserve" xmlns:serif="http://www.serif.com/" style="fill-rule:evenodd;clip-rule:evenodd;stroke-linejoin:round;stroke-miterlimit:2;"><path d="M80.023,1.548C82.087,-0.516 85.432,-0.516 87.496,1.548C101.641,15.693 151.826,65.878 165.971,80.023C166.962,81.014 167.519,82.358 167.519,83.76C167.519,85.161 166.962,86.505 165.971,87.496C160.62,92.847 150.83,102.637 145.479,107.988C143.416,110.051 140.07,110.051 138.007,107.988C132.154,102.135 120.657,90.638 112.553,82.534C111.042,81.023 108.77,80.571 106.795,81.389C104.821,82.207 103.533,84.133 103.533,86.27C103.533,107.634 103.533,142.712 103.533,157.502C103.533,158.903 102.977,160.247 101.986,161.238C100.995,162.229 99.651,162.786 98.25,162.786C90.682,162.786 76.837,162.786 69.269,162.786C67.868,162.786 66.524,162.229 65.533,161.238C64.542,160.247 63.986,158.903 63.986,157.502C63.986,142.712 63.986,107.634 63.986,86.27C63.986,84.133 62.698,82.207 60.724,81.389C58.75,80.571 56.477,81.023 54.966,82.534C46.862,90.638 35.365,102.135 29.512,107.988C27.449,110.051 24.103,110.051 22.04,107.988C16.689,102.637 6.899,92.847 1.548,87.496C0.557,86.505 0,85.161 0,83.76C-0,82.358 0.557,81.014 1.548,80.023C15.693,65.878 65.878,15.693 80.023,1.548Z" style="fill:url(#_Linear1);"/><defs><linearGradient id="_Linear1" x1="0" y1="0" x2="1" y2="0" gradientUnits="userSpaceOnUse" gradientTransform="matrix(9.96776e-15,-162.786,162.786,9.96776e-15,83.7595,162.786)"><stop offset="0" style="stop-color:#016ae9;stop-opacity:1"/><stop offset="1" style="stop-color:#76eeff;stop-opacity:1"/></linearGradient></defs></svg>