<?xml version="1.0" encoding="UTF-8" standalone="no"?><!DOCTYPE svg PUBLIC "-//W3C//DTD SVG 1.1//EN" "http://www.w3.org/Graphics/SVG/1.1/DTD/svg11.dtd"><svg width="782px" height="104px" version="1.1" xmlns="http://www.w3.org/2000/svg" xmlns:xlink="http://www.w3.org/1999/xlink" xml:space="preserve" xmlns:serif="http://www.serif.com/" style="fill-rule:evenodd;clip-rule:evenodd;stroke-linejoin:round;stroke-miterlimit:2;"><g><path d="M-0,83.373L-0,77.445L22.053,77.445L22.053,83.373L14.572,83.373L14.572,102.85L7.445,102.85L7.445,83.373L-0,83.373Z" style="fill:#0226b9;fill-rule:nonzero;"/><path d="M41.529,93.253L32.355,93.253L32.355,102.85L25.158,102.85L25.158,77.445L32.355,77.445L32.355,87.113L41.529,87.113L41.529,77.445L48.657,77.445L48.657,102.85L41.529,102.85L41.529,93.253Z" style="fill:#0226b9;fill-rule:nonzero;"/><path d="M59.983,98.686L58.325,102.85L50.703,102.85L62.1,77.445L69.368,77.445L80.73,102.85L73.038,102.85L71.38,98.686L59.983,98.686ZM62.417,92.688L68.945,92.688L65.699,84.573L62.417,92.688Z" style="fill:#0226b9;fill-rule:nonzero;"/><path d="M99.43,86.161L99.43,77.445L106.664,77.445L106.664,102.85L100.56,102.85L89.939,89.195L90.045,94.735L90.045,102.85L82.776,102.85L82.776,77.445L88.881,77.445L99.642,91.347L99.43,86.161Z" style="fill:#0226b9;fill-rule:nonzero;"/><path d="M123.988,89.865L135.173,102.427L135.173,102.85L126.282,102.85L119.013,94.382L119.013,102.85L111.815,102.85L111.815,77.445L119.013,77.445L119.013,85.772L125.717,77.445L134.326,77.445L134.326,77.869L123.988,89.865Z" style="fill:#0226b9;fill-rule:nonzero;"/><path d="M161.213,77.445L169.328,77.445L169.328,77.763L159.237,92.759L159.237,102.85L152.039,102.85L152.039,92.759L142.371,77.728L142.371,77.445L150.487,77.445L155.744,86.161L161.213,77.445Z" style="fill:#0226b9;fill-rule:nonzero;"/><path d="M196.673,90.148C196.673,92.923 196.079,95.317 194.891,97.328C193.704,99.339 192.045,100.868 189.916,101.915C187.788,102.962 185.335,103.485 182.56,103.485C179.784,103.485 177.326,102.962 175.185,101.915C173.045,100.868 171.381,99.339 170.193,97.328C169.005,95.317 168.411,92.923 168.411,90.148C168.411,87.419 169.005,85.049 170.193,83.038C171.381,81.027 173.045,79.486 175.185,78.416C177.326,77.345 179.784,76.81 182.56,76.81C185.335,76.81 187.788,77.34 189.916,78.398C192.045,79.457 193.704,80.991 194.891,83.003C196.079,85.014 196.673,87.396 196.673,90.148ZM189.475,90.148C189.475,87.96 188.852,86.219 187.605,84.926C186.359,83.632 184.677,82.985 182.56,82.985C181.195,82.985 179.99,83.291 178.943,83.902C177.896,84.514 177.079,85.361 176.491,86.443C175.903,87.525 175.609,88.76 175.609,90.148C175.609,91.536 175.903,92.776 176.491,93.87C177.079,94.964 177.902,95.811 178.961,96.411C180.019,97.01 181.219,97.31 182.56,97.31C183.948,97.31 185.165,97.005 186.212,96.393C187.258,95.781 188.064,94.935 188.629,93.852C189.193,92.77 189.475,91.536 189.475,90.148Z" style="fill:#0226b9;fill-rule:nonzero;"/><path d="M224.054,91.665C224.054,95.381 222.995,98.263 220.878,100.309C218.761,102.356 215.821,103.379 212.057,103.379C208.27,103.379 205.324,102.374 203.219,100.362C201.113,98.351 200.061,95.429 200.061,91.594L200.061,77.445L207.223,77.445L207.223,91.594C207.223,93.523 207.647,94.946 208.494,95.864C209.34,96.781 210.528,97.24 212.057,97.24C213.563,97.24 214.745,96.781 215.603,95.864C216.462,94.946 216.891,93.547 216.891,91.665L216.891,77.445L224.054,77.445L224.054,91.665Z" style="fill:#0226b9;fill-rule:nonzero;"/><path d="M237.074,77.445L256.586,77.445L256.586,83.479L244.201,83.479L244.201,88.242L255.845,88.242L255.845,94.135L244.201,94.135L244.201,102.85L237.074,102.85L237.074,77.445Z" style="fill:#0226b9;fill-rule:nonzero;"/><path d="M287.212,90.148C287.212,92.923 286.618,95.317 285.43,97.328C284.242,99.339 282.584,100.868 280.455,101.915C278.327,102.962 275.874,103.485 273.099,103.485C270.323,103.485 267.865,102.962 265.724,101.915C263.584,100.868 261.919,99.339 260.732,97.328C259.544,95.317 258.95,92.923 258.95,90.148C258.95,87.419 259.544,85.049 260.732,83.038C261.919,81.027 263.584,79.486 265.724,78.416C267.865,77.345 270.323,76.81 273.099,76.81C275.874,76.81 278.327,77.34 280.455,78.398C282.584,79.457 284.242,80.991 285.43,83.003C286.618,85.014 287.212,87.396 287.212,90.148ZM280.014,90.148C280.014,87.96 279.391,86.219 278.144,84.926C276.898,83.632 275.216,82.985 273.099,82.985C271.734,82.985 270.529,83.291 269.482,83.902C268.435,84.514 267.618,85.361 267.03,86.443C266.442,87.525 266.148,88.76 266.148,90.148C266.148,91.536 266.442,92.776 267.03,93.87C267.618,94.964 268.441,95.811 269.5,96.411C270.558,97.01 271.758,97.31 273.099,97.31C274.486,97.31 275.704,97.005 276.751,96.393C277.797,95.781 278.603,94.935 279.167,93.852C279.732,92.77 280.014,91.536 280.014,90.148Z" style="fill:#0226b9;fill-rule:nonzero;"/><path d="M306.583,102.85L300.655,94.629L298.15,94.629L298.15,102.85L290.952,102.85L290.952,77.445L303.372,77.445C305.466,77.445 307.259,77.845 308.753,78.645C310.247,79.445 311.376,80.515 312.14,81.856C312.905,83.197 313.287,84.643 313.287,86.196C313.287,87.913 312.893,89.407 312.105,90.677C311.317,91.947 309.912,93.017 307.889,93.888L314.522,102.427L314.522,102.85L306.583,102.85ZM298.15,89.301L303.443,89.301C304.337,89.301 305.019,89.019 305.489,88.454C305.96,87.889 306.195,87.184 306.195,86.337C306.195,85.467 305.948,84.726 305.454,84.114C304.96,83.503 304.266,83.197 303.372,83.197L298.15,83.197L298.15,89.301Z" style="fill:#0226b9;fill-rule:nonzero;"/><path d="M339.009,77.445C341.691,77.445 343.896,78.057 345.625,79.28C347.354,80.503 348.218,82.268 348.218,84.573C348.218,87.043 347.289,88.689 345.431,89.513C346.584,90.124 347.46,90.959 348.06,92.018C348.659,93.076 348.959,94.205 348.959,95.405C348.959,98.016 347.995,99.91 346.066,101.086C344.137,102.262 341.82,102.85 339.115,102.85L325.989,102.85L325.989,77.445L339.009,77.445ZM338.833,87.149C339.562,87.149 340.127,86.978 340.526,86.637C340.926,86.296 341.126,85.831 341.126,85.243C341.126,84.679 340.926,84.208 340.526,83.832C340.127,83.455 339.586,83.267 338.903,83.267L333.082,83.267L333.082,87.149L338.833,87.149ZM339.15,97.24C340.044,97.24 340.715,97.028 341.162,96.605C341.608,96.181 341.832,95.593 341.832,94.84C341.832,94.111 341.597,93.523 341.126,93.076C340.656,92.629 339.997,92.406 339.15,92.406L333.082,92.406L333.082,97.24L339.15,97.24Z" style="fill:#0226b9;fill-rule:nonzero;"/><path d="M352.841,102.85L352.841,77.445L372.706,77.445L372.706,83.479L359.933,83.479L359.933,87.113L371.965,87.113L371.965,92.97L359.933,92.97L359.933,96.781L373.199,96.781L373.199,102.85L352.841,102.85Z" style="fill:#0226b9;fill-rule:nonzero;"/><rect x="377.257" y="77.445" width="7.163" height="25.405" style="fill:#0226b9;fill-rule:nonzero;"/><path d="M406.225,86.161L406.225,77.445L413.459,77.445L413.459,102.85L407.354,102.85L396.734,89.195L396.84,94.735L396.84,102.85L389.571,102.85L389.571,77.445L395.675,77.445L406.437,91.347L406.225,86.161Z" style="fill:#0226b9;fill-rule:nonzero;"/><path d="M436.922,85.067C436.076,84.267 435.141,83.697 434.117,83.355C433.094,83.014 432.089,82.844 431.101,82.844C428.96,82.844 427.29,83.467 426.09,84.714C424.891,85.961 424.291,87.784 424.291,90.183C424.291,91.383 424.514,92.529 424.961,93.623C425.408,94.717 426.143,95.623 427.166,96.34C428.19,97.057 429.501,97.416 431.101,97.416C431.947,97.416 432.812,97.316 433.694,97.116C434.576,96.916 435.346,96.569 436.005,96.075L436.005,92.9L429.583,92.9L429.583,87.254L442.003,87.254L442.003,98.475C441.18,100.074 439.786,101.309 437.822,102.18C435.858,103.05 433.606,103.485 431.065,103.485C427.89,103.485 425.261,102.862 423.179,101.615C421.098,100.368 419.58,98.739 418.628,96.728C417.675,94.717 417.199,92.535 417.199,90.183C417.199,87.854 417.71,85.672 418.734,83.638C419.757,81.603 421.315,79.956 423.409,78.698C425.502,77.44 428.066,76.81 431.101,76.81C433.053,76.81 434.817,77.104 436.393,77.692C437.969,78.28 439.545,79.363 441.121,80.939L436.922,85.067Z" style="fill:#0226b9;fill-rule:nonzero;"/><rect x="454.353" y="77.445" width="7.163" height="25.405" style="fill:#0226b9;fill-rule:nonzero;"/><path d="M483.321,86.161L483.321,77.445L490.554,77.445L490.554,102.85L484.45,102.85L473.83,89.195L473.935,94.735L473.935,102.85L466.667,102.85L466.667,77.445L472.771,77.445L483.533,91.347L483.321,86.161Z" style="fill:#0226b9;fill-rule:nonzero;"/><path d="M501.916,83.373L501.916,77.445L523.968,77.445L523.968,83.373L516.488,83.373L516.488,102.85L509.361,102.85L509.361,83.373L501.916,83.373Z" style="fill:#0226b9;fill-rule:nonzero;"/><path d="M543.445,93.253L534.271,93.253L534.271,102.85L527.073,102.85L527.073,77.445L534.271,77.445L534.271,87.113L543.445,87.113L543.445,77.445L550.572,77.445L550.572,102.85L543.445,102.85L543.445,93.253Z" style="fill:#0226b9;fill-rule:nonzero;"/><path d="M555.724,102.85L555.724,77.445L575.589,77.445L575.589,83.479L562.816,83.479L562.816,87.113L574.848,87.113L574.848,92.97L562.816,92.97L562.816,96.781L576.083,96.781L576.083,102.85L555.724,102.85Z" style="fill:#0226b9;fill-rule:nonzero;"/><path d="M604.769,93.253L595.595,93.253L595.595,102.85L588.397,102.85L588.397,77.445L595.595,77.445L595.595,87.113L604.769,87.113L604.769,77.445L611.896,77.445L611.896,102.85L604.769,102.85L604.769,93.253Z" style="fill:#0226b9;fill-rule:nonzero;"/><path d="M623.222,98.686L621.564,102.85L613.943,102.85L625.339,77.445L632.608,77.445L643.969,102.85L636.277,102.85L634.619,98.686L623.222,98.686ZM625.657,92.688L632.184,92.688L628.938,84.573L625.657,92.688Z" style="fill:#0226b9;fill-rule:nonzero;"/><path d="M662.67,86.161L662.67,77.445L669.903,77.445L669.903,102.85L663.799,102.85L653.178,89.195L653.284,94.735L653.284,102.85L646.016,102.85L646.016,77.445L652.12,77.445L662.882,91.347L662.67,86.161Z" style="fill:#0226b9;fill-rule:nonzero;"/><path d="M693.367,85.067C692.52,84.267 691.585,83.697 690.562,83.355C689.539,83.014 688.533,82.844 687.545,82.844C685.405,82.844 683.734,83.467 682.535,84.714C681.335,85.961 680.735,87.784 680.735,90.183C680.735,91.383 680.959,92.529 681.406,93.623C681.853,94.717 682.588,95.623 683.611,96.34C684.634,97.057 685.946,97.416 687.545,97.416C688.392,97.416 689.256,97.316 690.139,97.116C691.021,96.916 691.791,96.569 692.45,96.075L692.45,92.9L686.028,92.9L686.028,87.254L698.448,87.254L698.448,98.475C697.625,100.074 696.231,101.309 694.267,102.18C692.303,103.05 690.05,103.485 687.51,103.485C684.334,103.485 681.706,102.862 679.624,101.615C677.542,100.368 676.025,98.739 675.072,96.728C674.12,94.717 673.643,92.535 673.643,90.183C673.643,87.854 674.155,85.672 675.178,83.638C676.201,81.603 677.76,79.956 679.853,78.698C681.947,77.44 684.511,76.81 687.545,76.81C689.498,76.81 691.262,77.104 692.838,77.692C694.414,78.28 695.99,79.363 697.566,80.939L693.367,85.067Z" style="fill:#0226b9;fill-rule:nonzero;"/><path d="M729.392,90.148C729.392,92.923 728.798,95.317 727.61,97.328C726.422,99.339 724.764,100.868 722.635,101.915C720.506,102.962 718.054,103.485 715.278,103.485C712.503,103.485 710.045,102.962 707.904,101.915C705.764,100.868 704.099,99.339 702.911,97.328C701.723,95.317 701.13,92.923 701.13,90.148C701.13,87.419 701.723,85.049 702.911,83.038C704.099,81.027 705.764,79.486 707.904,78.416C710.045,77.345 712.503,76.81 715.278,76.81C718.054,76.81 720.506,77.34 722.635,78.398C724.764,79.457 726.422,80.991 727.61,83.003C728.798,85.014 729.392,87.396 729.392,90.148ZM722.194,90.148C722.194,87.96 721.571,86.219 720.324,84.926C719.077,83.632 717.395,82.985 715.278,82.985C713.914,82.985 712.709,83.291 711.662,83.902C710.615,84.514 709.798,85.361 709.21,86.443C708.622,87.525 708.327,88.76 708.327,90.148C708.327,91.536 708.622,92.776 709.21,93.87C709.798,94.964 710.621,95.811 711.679,96.411C712.738,97.01 713.938,97.31 715.278,97.31C716.666,97.31 717.884,97.005 718.93,96.393C719.977,95.781 720.783,94.935 721.347,93.852C721.912,92.77 722.194,91.536 722.194,90.148Z" style="fill:#0226b9;fill-rule:nonzero;"/><path d="M756.772,91.665C756.772,95.381 755.714,98.263 753.597,100.309C751.48,102.356 748.54,103.379 744.776,103.379C740.989,103.379 738.043,102.374 735.937,100.362C733.832,98.351 732.779,95.429 732.779,91.594L732.779,77.445L739.942,77.445L739.942,91.594C739.942,93.523 740.365,94.946 741.212,95.864C742.059,96.781 743.247,97.24 744.776,97.24C746.281,97.24 747.463,96.781 748.322,95.864C749.181,94.946 749.61,93.547 749.61,91.665L749.61,77.445L756.772,77.445L756.772,91.665Z" style="fill:#0226b9;fill-rule:nonzero;"/><path d="M759.489,83.373L759.489,77.445L781.542,77.445L781.542,83.373L774.062,83.373L774.062,102.85L766.934,102.85L766.934,83.373L759.489,83.373Z" style="fill:#0226b9;fill-rule:nonzero;"/><path d="M390.77,7.839C398.048,-2.133 410.625,-1.658 417.114,4.062C423.887,10.034 424.232,21.971 417.474,33.9C413.211,41.948 402.715,50.049 393.393,55.735L393.389,55.737C391.78,56.713 389.761,56.713 388.151,55.737L388.148,55.735C378.831,50.052 368.343,41.958 364.081,33.927C357.308,21.98 357.651,10.036 364.427,4.062C370.916,-1.658 383.493,-2.133 390.77,7.839Z" style="fill:url(#_Linear1);"/></g><defs><linearGradient id="_Linear1" x1="0" y1="0" x2="1" y2="0" gradientUnits="userSpaceOnUse" gradientTransform="matrix(3.25744e-15,-53.1981,53.1981,3.25744e-15,390.77,54.8316)"><stop offset="0" style="stop-color:#016ae9;stop-opacity:1"/><stop offset="1" style="stop-color:#76eeff;stop-opacity:1"/></linearGradient></defs></svg>