<?xml version="1.0" encoding="UTF-8" standalone="no"?><!DOCTYPE svg PUBLIC "-//W3C//DTD SVG 1.1//EN" "http://www.w3.org/Graphics/SVG/1.1/DTD/svg11.dtd"><svg width="1545px" height="656px" version="1.1" xmlns="http://www.w3.org/2000/svg" xmlns:xlink="http://www.w3.org/1999/xlink" xml:space="preserve" xmlns:serif="http://www.serif.com/" style="fill-rule:evenodd;clip-rule:evenodd;stroke-linejoin:round;stroke-miterlimit:2;"><g><path d="M469.254,645.844C466.014,649.084 462.417,651.445 458.463,652.928C454.509,654.41 450.144,655.152 445.366,655.152C437.953,655.152 431.83,653.751 426.998,650.951C422.165,648.15 418.61,644.43 416.331,639.79C414.052,635.149 412.912,630.001 412.912,624.345C412.912,618.963 414.107,613.87 416.495,609.065C418.884,604.26 422.522,600.361 427.41,597.369C432.297,594.376 438.282,592.879 445.366,592.879C454.098,592.879 461.786,596.037 468.43,602.352L458.051,612.484C456.02,610.617 453.96,609.299 451.874,608.53C449.787,607.761 447.618,607.377 445.366,607.377C441.742,607.377 438.749,608.214 436.388,609.889C434.027,611.564 432.297,613.706 431.199,616.314C430.1,618.922 429.551,621.627 429.551,624.427C429.551,627.228 430.087,629.878 431.157,632.376C432.228,634.875 433.944,636.92 436.306,638.513C438.667,640.105 441.687,640.902 445.366,640.902C447.618,640.902 450.007,640.394 452.533,639.378C455.059,638.362 457.338,636.838 459.369,634.806L469.254,645.844Z" style="fill:#0226b9;fill-rule:nonzero;"/><path d="M537.127,624.016C537.127,630.495 535.741,636.083 532.968,640.778C530.194,645.473 526.323,649.043 521.353,651.486C516.384,653.93 510.659,655.152 504.179,655.152C497.699,655.152 491.961,653.93 486.964,651.486C481.966,649.043 478.081,645.473 475.308,640.778C472.535,636.083 471.148,630.495 471.148,624.016C471.148,617.646 472.535,612.113 475.308,607.418C478.081,602.723 481.966,599.126 486.964,596.627C491.961,594.129 497.699,592.879 504.179,592.879C510.659,592.879 516.384,594.115 521.353,596.586C526.323,599.057 530.194,602.64 532.968,607.335C535.741,612.031 537.127,617.591 537.127,624.016ZM520.324,624.016C520.324,618.909 518.869,614.845 515.958,611.825C513.048,608.804 509.121,607.294 504.179,607.294C500.994,607.294 498.18,608.008 495.736,609.436C493.292,610.864 491.384,612.841 490.011,615.367C488.638,617.893 487.952,620.776 487.952,624.016C487.952,627.255 488.638,630.152 490.011,632.706C491.384,635.259 493.306,637.236 495.777,638.636C498.248,640.037 501.049,640.737 504.179,640.737C507.419,640.737 510.261,640.023 512.704,638.595C515.148,637.167 517.029,635.191 518.347,632.665C519.665,630.138 520.324,627.255 520.324,624.016Z" style="fill:#0226b9;fill-rule:nonzero;"/><path d="M580.29,636.371L577.324,636.371L562.498,618.497L562.498,653.669L545.859,653.669L545.859,594.362L563.404,594.362L579.054,614.461L594.622,594.362L612.167,594.362L612.167,653.669L595.528,653.669L595.528,618.332L580.29,636.371Z" style="fill:#0226b9;fill-rule:nonzero;"/><rect x="624.193" y="594.362" width="16.721" height="59.307" style="fill:#0226b9;fill-rule:nonzero;"/><path d="M691.82,614.708L691.82,594.362L708.706,594.362L708.706,653.669L694.456,653.669L669.662,621.792L669.909,634.724L669.909,653.669L652.941,653.669L652.941,594.362L667.191,594.362L692.314,626.816L691.82,614.708Z" style="fill:#0226b9;fill-rule:nonzero;"/><path d="M763.482,612.154C761.505,610.287 759.322,608.955 756.934,608.159C754.545,607.363 752.197,606.965 749.891,606.965C744.894,606.965 740.995,608.42 738.194,611.33C735.394,614.241 733.993,618.497 733.993,624.098C733.993,626.899 734.515,629.576 735.559,632.129C736.602,634.683 738.318,636.797 740.707,638.472C743.095,640.147 746.157,640.984 749.891,640.984C751.868,640.984 753.886,640.751 755.945,640.284C758.005,639.817 759.803,639.007 761.341,637.854L761.341,630.44L746.349,630.44L746.349,617.261L775.344,617.261L775.344,643.455C773.422,647.189 770.168,650.072 765.583,652.104C760.997,654.136 755.739,655.152 749.809,655.152C742.395,655.152 736.259,653.697 731.399,650.786C726.539,647.876 722.997,644.073 720.773,639.378C718.549,634.683 717.437,629.589 717.437,624.098C717.437,618.661 718.631,613.568 721.02,608.818C723.409,604.068 727.047,600.224 731.934,597.286C736.822,594.348 742.807,592.879 749.891,592.879C754.449,592.879 758.567,593.566 762.247,594.939C765.926,596.312 769.605,598.838 773.284,602.517L763.482,612.154Z" style="fill:#0226b9;fill-rule:nonzero;"/><path d="M840.746,610.507C837.122,607.761 832.481,606.388 826.825,606.388C824.574,606.388 822.666,606.759 821.101,607.5C819.535,608.242 818.753,609.354 818.753,610.836C818.753,612.154 819.151,613.156 819.947,613.843C820.744,614.529 821.787,615.01 823.077,615.284C824.368,615.559 826.221,615.833 828.637,616.108C835.612,616.877 841.364,618.785 845.894,621.833C850.425,624.88 852.69,629.534 852.69,635.795C852.69,640.078 851.482,643.675 849.065,646.585C846.649,649.496 843.478,651.651 839.552,653.051C835.625,654.452 831.328,655.152 826.661,655.152C822.762,655.152 819.371,654.877 816.488,654.328C813.605,653.779 810.832,652.749 808.168,651.239C805.505,649.729 802.828,647.546 800.137,644.691L809.363,634.065C813.975,638.568 819.769,640.819 826.743,640.819C829.544,640.819 831.795,640.352 833.497,639.419C835.2,638.485 836.051,637.195 836.051,635.547C836.051,632.472 832.756,630.66 826.166,630.111C821.224,629.672 817.009,628.862 813.522,627.681C810.035,626.5 807.235,624.565 805.121,621.874C803.006,619.183 801.949,615.504 801.949,610.836C801.949,606.882 803.116,603.546 805.45,600.828C807.784,598.11 810.832,596.106 814.593,594.815C818.355,593.525 822.432,592.879 826.825,592.879C831.383,592.879 835.447,593.429 839.016,594.527C842.586,595.625 845.935,597.41 849.065,599.881L840.746,610.507Z" style="fill:#0226b9;fill-rule:nonzero;"/><path d="M923.364,624.016C923.364,630.495 921.977,636.083 919.204,640.778C916.431,645.473 912.56,649.043 907.59,651.486C902.62,653.93 896.895,655.152 890.416,655.152C883.936,655.152 878.197,653.93 873.2,651.486C868.203,649.043 864.318,645.473 861.545,640.778C858.771,636.083 857.385,630.495 857.385,624.016C857.385,617.646 858.771,612.113 861.545,607.418C864.318,602.723 868.203,599.126 873.2,596.627C878.197,594.129 883.936,592.879 890.416,592.879C896.895,592.879 902.62,594.115 907.59,596.586C912.56,599.057 916.431,602.64 919.204,607.335C921.977,612.031 923.364,617.591 923.364,624.016ZM906.56,624.016C906.56,618.909 905.105,614.845 902.195,611.825C899.284,608.804 895.358,607.294 890.416,607.294C887.231,607.294 884.416,608.008 881.973,609.436C879.529,610.864 877.621,612.841 876.248,615.367C874.875,617.893 874.188,620.776 874.188,624.016C874.188,627.255 874.875,630.152 876.248,632.706C877.621,635.259 879.543,637.236 882.014,638.636C884.485,640.037 887.285,640.737 890.416,640.737C893.655,640.737 896.497,640.023 898.941,638.595C901.385,637.167 903.265,635.191 904.583,632.665C905.901,630.138 906.56,627.255 906.56,624.016Z" style="fill:#0226b9;fill-rule:nonzero;"/><path d="M994.779,624.016C994.779,630.495 993.393,636.083 990.62,640.778C987.846,645.473 983.975,649.043 979.005,651.486C974.036,653.93 968.311,655.152 961.831,655.152C955.351,655.152 949.613,653.93 944.615,651.486C939.618,649.043 935.733,645.473 932.96,640.778C930.187,636.083 928.8,630.495 928.8,624.016C928.8,617.646 930.187,612.113 932.96,607.418C935.733,602.723 939.618,599.126 944.615,596.627C949.613,594.129 955.351,592.879 961.831,592.879C968.311,592.879 974.036,594.115 979.005,596.586C983.975,599.057 987.846,602.64 990.62,607.335C993.393,612.031 994.779,617.591 994.779,624.016ZM977.976,624.016C977.976,618.909 976.52,614.845 973.61,611.825C970.7,608.804 966.773,607.294 961.831,607.294C958.646,607.294 955.832,608.008 953.388,609.436C950.944,610.864 949.036,612.841 947.663,615.367C946.29,617.893 945.604,620.776 945.604,624.016C945.604,627.255 946.29,630.152 947.663,632.706C949.036,635.259 950.958,637.236 953.429,638.636C955.9,640.037 958.701,640.737 961.831,640.737C965.071,640.737 967.913,640.023 970.356,638.595C972.8,637.167 974.681,635.191 975.999,632.665C977.317,630.138 977.976,627.255 977.976,624.016Z" style="fill:#0226b9;fill-rule:nonzero;"/><path d="M1042.39,614.708L1042.39,594.362L1059.28,594.362L1059.28,653.669L1045.03,653.669L1020.23,621.792L1020.48,634.724L1020.48,653.669L1003.51,653.669L1003.51,594.362L1017.76,594.362L1042.88,626.816L1042.39,614.708Z" style="fill:#0226b9;fill-rule:nonzero;"/><path d="M1077.97,620.062L1077.97,603.423L1070.4,603.423L1070.4,594.28L1096.1,594.28L1096.1,603.423L1088.27,603.423L1088.27,620.062L1077.97,620.062ZM1121.3,594.28L1131.35,594.28L1131.35,620.144L1121.22,620.144L1121.22,614.296L1121.55,608.2L1116.69,614.872L1114.3,614.872L1109.52,608.118L1109.85,614.296L1109.85,620.144L1099.72,620.144L1099.72,594.28L1109.77,594.28L1115.62,601.693L1121.3,594.28Z" style="fill:#0226b9;fill-rule:nonzero;"/><path d="M66.757,259.326L1405.39,259.071C1427.46,259.071 1446.96,262.853 1464.01,269.752C1483.8,277.754 1499.4,289.162 1511.33,303.275C1522.32,316.274 1530.65,330.934 1536.27,347.282C1541.58,362.699 1544.36,379.359 1544.36,397.303C1544.36,410.943 1542.8,424.03 1539.76,436.574C1536.45,450.211 1531.22,463.053 1524.07,475.101C1516.47,487.912 1507.02,498.944 1495.76,508.235C1484.56,517.481 1470.84,525.111 1454.31,530.575C1443.39,534.184 1431.68,536.553 1419.14,537.551C1418.61,537.593 1418.08,537.614 1417.54,537.614L116.768,538.088C95.833,538.088 77.1,525.085 69.779,505.472L3.167,327.023C-2.581,311.624 -0.419,294.385 8.953,280.883C18.326,267.38 33.72,259.326 50.156,259.326L66.757,259.326Z" style="fill:#3af;"/><path d="M257.393,495.082L224.725,495.082C221.764,495.082 219.109,493.257 218.049,490.492L189.466,415.963C189.009,414.772 187.863,413.989 186.587,413.996C185.312,414.003 184.175,414.799 183.731,415.995L156.14,490.418C155.101,493.221 152.426,495.082 149.436,495.082L116.768,495.082C113.784,495.082 111.113,493.229 110.069,490.433L43.458,311.983C42.638,309.788 42.946,307.33 44.282,305.405C45.619,303.48 47.813,302.332 50.156,302.332L94.819,302.332C97.825,302.332 100.511,304.212 101.539,307.037L130.869,395.223C131.284,396.473 132.452,397.317 133.77,397.32C135.087,397.323 136.259,396.484 136.68,395.236L166.396,307.196C167.378,304.289 170.103,302.332 173.171,302.332L199.203,302.332C202.236,302.332 204.938,304.245 205.947,307.105L237.064,395.361C237.503,396.603 238.686,397.427 240.004,397.406C241.321,397.385 242.478,396.524 242.876,395.267L270.797,307.146C271.793,304.265 274.507,302.332 277.555,302.332L322.218,302.332C324.55,302.332 326.736,303.469 328.074,305.379C329.412,307.289 329.735,309.732 328.939,311.924L264.113,490.373C263.087,493.2 260.401,495.082 257.393,495.082ZM513.322,495.082L469.169,495.082C466.963,495.082 464.88,494.064 463.526,492.323L420.909,437.548C420.328,436.801 419.436,436.365 418.49,436.365C414.137,436.365 401.796,436.365 401.796,436.365L401.796,487.932C401.796,491.881 398.594,495.082 394.645,495.082L354.831,495.082C350.882,495.082 347.681,491.881 347.681,487.932L347.681,309.227C347.681,305.278 350.882,302.077 354.831,302.077L439.564,302.077C462.333,302.077 480.127,308.799 493.112,321.787C506.244,334.924 512.815,350.819 512.815,369.476C512.815,384.083 509.403,396.579 502.765,407.013C497.876,414.698 490.158,421.394 479.469,426.895C478.645,427.317 478.058,428.091 477.871,428.997C477.685,429.904 477.92,430.846 478.51,431.559C487.621,442.588 518.831,480.311 518.831,480.311C519.891,481.593 520.472,483.204 520.472,484.868L520.472,487.932C520.472,491.881 517.271,495.082 513.322,495.082ZM404.86,350.587C404.047,350.587 403.268,350.909 402.693,351.484C402.118,352.059 401.796,352.838 401.796,353.651L401.796,385.301C401.796,386.114 402.118,386.894 402.693,387.468C403.268,388.043 404.047,388.366 404.86,388.366L440.074,388.366C446.201,388.366 450.992,386.801 454.239,383.124C457.523,379.405 459.211,375.208 459.211,370.497C459.211,365.232 457.414,360.525 453.884,356.351C450.516,352.37 445.686,350.587 439.564,350.587L404.86,350.587ZM691.525,466.313C691.044,465.182 689.934,464.447 688.705,464.447L610.598,464.447C609.369,464.447 608.259,465.182 607.778,466.313L597.405,490.728C596.283,493.368 593.692,495.082 590.824,495.082L547.947,495.082C545.523,495.082 543.263,493.853 541.945,491.818C540.628,489.783 540.431,487.219 541.423,485.006L621.561,306.301C622.714,303.731 625.269,302.077 628.086,302.077L671.473,302.077C674.29,302.077 676.844,303.731 677.997,306.301L758.135,485.006C759.127,487.219 758.931,489.783 757.613,491.818C756.295,493.853 754.036,495.082 751.611,495.082L708.479,495.082C705.611,495.082 703.02,493.368 701.898,490.728L691.525,466.313ZM652.563,374.529C652.084,373.396 650.975,372.659 649.745,372.657C648.515,372.655 647.403,373.389 646.921,374.521L631.532,410.651C631.129,411.598 631.227,412.683 631.795,413.542C632.362,414.4 633.322,414.916 634.351,414.916L665.002,414.916C666.029,414.916 666.988,414.402 667.556,413.545C668.124,412.689 668.225,411.606 667.825,410.659L652.563,374.529ZM834.253,444.534C833.44,444.534 832.661,444.857 832.086,445.432C831.511,446.006 831.188,446.786 831.188,447.599L831.188,487.932C831.188,491.881 827.987,495.082 824.038,495.082L784.224,495.082C780.275,495.082 777.074,491.881 777.074,487.932L777.074,309.227C777.074,305.278 780.275,302.077 784.224,302.077L868.446,302.077C892.661,302.077 911.189,309.072 924.235,322.498C937.354,335.998 943.994,352.913 943.994,373.306C943.994,394.111 937.305,411.04 924.163,424.186C911.16,437.193 892.692,444.159 868.557,444.533C868.52,444.534 868.483,444.534 868.446,444.534L834.253,444.534ZM831.188,390.663C831.188,391.475 831.511,392.255 832.086,392.829C832.661,393.404 833.44,393.727 834.253,393.727L868.446,393.727C875.36,393.727 880.774,392.092 884.487,388.25C888.134,384.477 889.88,379.731 889.88,374.071C889.88,368.38 888.113,363.58 884.447,359.723C880.743,355.827 875.342,354.161 868.446,354.161L834.253,354.161C832.56,354.161 831.188,355.533 831.188,357.225L831.188,390.663ZM1019.49,444.534C1018.67,444.534 1017.89,444.857 1017.32,445.432C1016.74,446.006 1016.42,446.786 1016.42,447.599L1016.42,487.932C1016.42,491.881 1013.22,495.082 1009.27,495.082L969.457,495.082C965.508,495.082 962.307,491.881 962.307,487.932L962.307,309.227C962.307,305.278 965.508,302.077 969.457,302.077L1053.68,302.077C1077.89,302.077 1096.42,309.072 1109.47,322.498C1122.59,335.998 1129.23,352.913 1129.23,373.306C1129.23,394.111 1122.54,411.04 1109.4,424.186C1096.39,437.193 1077.92,444.159 1053.79,444.533C1053.75,444.534 1053.72,444.534 1053.68,444.534L1019.49,444.534ZM1016.42,390.663C1016.42,391.475 1016.74,392.255 1017.32,392.829C1017.89,393.404 1018.67,393.727 1019.49,393.727L1053.68,393.727C1060.59,393.727 1066.01,392.092 1069.72,388.25C1073.37,384.477 1075.11,379.731 1075.11,374.071C1075.11,368.38 1073.35,363.58 1069.68,359.723C1065.98,355.827 1060.58,354.161 1053.68,354.161L1019.49,354.161C1017.79,354.161 1016.42,355.533 1016.42,357.225L1016.42,390.663ZM1292.73,495.082L1156.7,495.082C1152.75,495.082 1149.55,491.881 1149.55,487.932L1149.55,309.227C1149.55,305.278 1152.75,302.077 1156.7,302.077L1292.73,302.077C1296.68,302.077 1299.88,305.278 1299.88,309.227L1299.88,345.734C1299.88,349.683 1296.68,352.884 1292.73,352.884L1205.97,352.884C1205.15,352.884 1204.37,353.207 1203.8,353.782C1203.23,354.356 1202.9,355.136 1202.9,355.949L1202.9,369.984C1202.9,370.797 1203.23,371.576 1203.8,372.151C1204.37,372.725 1205.15,373.048 1205.97,373.048L1292.73,373.048C1296.68,373.048 1299.88,376.25 1299.88,380.198L1299.88,415.174C1299.88,419.123 1296.68,422.324 1292.73,422.324L1205.97,422.324C1204.27,422.324 1202.9,423.696 1202.9,425.388L1202.9,440.955C1202.9,441.768 1203.23,442.547 1203.8,443.122C1204.37,443.697 1205.15,444.02 1205.97,444.02L1292.73,444.02C1296.68,444.02 1299.88,447.221 1299.88,451.17L1299.88,487.932C1299.88,491.881 1296.68,495.082 1292.73,495.082ZM1405.39,302.077C1421.38,302.077 1435.54,304.623 1447.89,309.619C1460.63,314.773 1470.8,321.945 1478.49,331.035C1486.03,339.965 1491.74,350.045 1495.61,361.278C1499.43,372.377 1501.36,384.384 1501.36,397.303C1501.36,407.42 1500.22,417.129 1497.96,426.433C1495.67,435.893 1492.04,444.801 1487.09,453.159C1482.06,461.625 1475.83,468.925 1468.39,475.066C1460.95,481.2 1451.78,486.118 1440.81,489.743C1430.1,493.286 1418.29,495.082 1405.39,495.082L1332.14,495.082C1328.19,495.082 1324.99,491.881 1324.99,487.932L1324.99,309.227C1324.99,305.278 1328.19,302.077 1332.14,302.077L1405.39,302.077ZM1378.6,440.955C1378.6,441.768 1378.92,442.547 1379.5,443.122C1380.07,443.697 1380.85,444.02 1381.66,444.02L1405.39,444.02C1413.42,444.02 1420.43,442.71 1426.38,439.958C1431.83,437.436 1436.01,434.06 1438.8,429.698C1441.88,424.886 1444.14,419.813 1445.57,414.475C1447.04,409.005 1447.75,403.11 1447.75,396.793C1447.75,384.095 1444.38,373.345 1437.44,364.606C1430.74,356.173 1419.95,352.374 1405.39,352.374L1381.66,352.374C1380.85,352.374 1380.07,352.696 1379.5,353.271C1378.92,353.846 1378.6,354.625 1378.6,355.438L1378.6,440.955Z" style="fill:#fff;"/><g><g><g><path d="M635.621,105.517L635.621,136.145C639.704,130.828 645.481,128.17 652.953,128.17C668.128,128.17 675.715,137.301 675.715,155.562L675.715,186.421L659.077,186.421L659.077,155.678C659.077,151.748 658.095,148.704 656.13,146.547C654.166,144.389 651.528,143.311 648.216,143.311C644.595,143.311 641.572,144.524 639.145,146.951C636.719,149.379 635.506,152.827 635.506,157.296L635.506,186.421L618.868,186.421L618.868,105.517L635.621,105.517Z" style="fill:#fff;fill-rule:nonzero;"/><path d="M730.687,127.592L746.863,127.592L746.863,186.421L730.918,186.421L730.918,177.522C729.223,180.527 726.681,182.761 723.292,184.225C719.903,185.689 716.59,186.421 713.355,186.421C704.651,186.421 697.564,183.686 692.095,178.215C686.626,172.745 683.891,165.386 683.891,156.14C683.891,147.048 686.645,139.805 692.153,134.411C697.66,129.018 704.612,126.321 713.009,126.321C721.559,126.321 727.452,128.941 730.687,134.18L730.687,127.592ZM715.551,140.999C711.237,140.999 707.655,142.367 704.805,145.102C701.955,147.838 700.53,151.517 700.53,156.14C700.53,160.763 701.955,164.423 704.805,167.12C707.655,169.817 711.237,171.165 715.551,171.165C720.018,171.165 723.658,169.701 726.469,166.773C729.281,163.845 730.687,160.493 730.687,156.718C730.687,152.403 729.339,148.704 726.643,145.622C723.947,142.54 720.249,140.999 715.551,140.999Z" style="fill:#fff;fill-rule:nonzero;"/><path d="M797.139,186.421L797.139,154.522C797.139,145.661 793.211,141.23 785.354,141.23C781.579,141.23 778.479,142.598 776.052,145.333C773.626,148.069 772.413,151.363 772.413,155.215L772.413,186.421L756.005,186.421L756.005,127.592L772.413,127.592L772.413,134.874C776.803,129.172 781.964,126.321 789.513,126.321C796.985,126.321 802.916,128.401 807.307,132.562C811.698,136.723 813.893,144.004 813.893,154.406L813.893,186.421L797.139,186.421Z" style="fill:#fff;fill-rule:nonzero;"/><path d="M837.486,195.482C838.041,203.411 842.957,207.375 852.233,207.375C856.277,207.375 859.706,206.443 862.521,204.58C865.335,202.717 866.743,200.041 866.743,196.552C866.743,189.813 861.986,186.443 852.471,186.443C842.798,186.443 835.088,183.767 829.339,178.416C823.591,173.064 820.717,165.868 820.717,156.83C820.717,147.395 823.809,140.041 829.993,134.768C836.178,129.496 843.67,126.859 852.471,126.859C858.656,126.859 863.254,127.93 866.267,130.07L872.689,121.745L885.058,131.26L877.565,140.18C881.609,145.095 883.631,150.328 883.631,155.878C883.631,166.027 879.429,173.282 871.024,177.642C879.746,181.448 884.107,187.752 884.107,196.552C884.107,204.798 880.975,211.181 874.711,215.7C868.447,220.219 860.955,222.479 852.233,222.479C842.085,222.479 834.394,220.12 829.161,215.403C823.928,210.685 821.391,204.045 821.549,195.482L837.486,195.482ZM852.471,142.082C847.952,142.082 844.285,143.391 841.47,146.007C838.656,148.624 837.248,152.231 837.248,156.83C837.248,161.032 838.675,164.421 841.53,166.998C844.384,169.575 848.031,170.863 852.471,170.863C856.594,170.863 860.083,169.635 862.937,167.177C865.791,164.719 867.219,161.27 867.219,156.83C867.219,152.707 865.811,149.218 862.997,146.364C860.182,143.51 856.673,142.082 852.471,142.082Z" style="fill:#fff;"/><path d="M944.037,178.158C938.414,183.667 930.788,186.421 921.159,186.421C911.531,186.421 903.924,183.667 898.339,178.158C892.755,172.648 889.962,165.309 889.962,156.14C889.962,147.433 892.832,140.267 898.571,134.642C904.309,129.018 911.839,126.205 921.159,126.205C930.557,126.205 938.125,129.018 943.864,134.642C949.602,140.267 952.472,147.433 952.472,156.14C952.472,165.309 949.66,172.648 944.037,178.158ZM910.414,167.12C912.802,170.125 916.384,171.627 921.159,171.627C925.935,171.627 929.536,170.144 931.963,167.178C934.389,164.211 935.602,160.532 935.602,156.14C935.602,152.133 934.37,148.627 931.905,145.622C929.44,142.617 925.858,141.115 921.159,141.115C916.538,141.115 912.994,142.617 910.529,145.622C908.064,148.627 906.832,152.133 906.832,156.14C906.832,160.455 908.026,164.115 910.414,167.12Z" style="fill:#fff;fill-rule:nonzero;"/><path d="M977.402,127.592L977.402,158.336C977.402,167.197 981.331,171.627 989.188,171.627C992.962,171.627 996.062,170.26 998.489,167.524C1000.92,164.789 1002.13,161.495 1002.13,157.642L1002.13,127.592L1018.54,127.592L1018.54,186.421L1002.13,186.421L1002.13,177.753C997.815,183.532 992.654,186.421 985.028,186.421C981.485,186.421 978.346,185.998 975.611,185.15C972.877,184.302 970.335,182.896 967.985,180.931C965.636,178.967 963.826,176.077 962.555,172.263C961.284,168.449 960.648,163.845 960.648,158.451L960.648,127.592L977.402,127.592Z" style="fill:#fff;fill-rule:nonzero;"/><path d="M1053.52,113.801L1053.52,127.592L1067.96,127.592L1067.96,141.462L1053.4,141.462L1053.4,163.731C1053.4,168.816 1055.56,171.359 1059.87,171.359C1062.65,171.359 1064.96,170.897 1066.81,169.972L1070.62,183.841C1067.46,185.151 1063.45,185.999 1058.6,186.384C1051.9,186.692 1046.61,185.093 1042.71,181.588C1038.83,178.082 1036.88,172.129 1036.88,163.731L1036.88,141.462L1026.71,141.462L1026.71,127.592L1036.88,127.592L1036.88,113.801L1053.52,113.801Z" style="fill:#fff;fill-rule:nonzero;"/></g><g><path d="M662.428,41.484L662.428,55.585L676.871,55.585L676.871,69.454L662.312,69.454L662.312,91.414C662.312,96.499 664.469,99.042 668.783,99.042C671.556,99.042 673.866,98.58 675.715,97.655L679.528,111.524C676.37,112.834 672.364,113.682 667.512,114.067C660.81,114.375 655.514,112.777 651.624,109.271C647.734,105.765 645.789,99.813 645.789,91.414L645.789,69.454L635.621,69.454L635.621,55.585L645.789,55.585L645.789,41.484L662.428,41.484Z" style="fill:#3af;fill-rule:nonzero;"/><path d="M730.687,55.275L746.863,55.275L746.863,114.105L730.918,114.105L730.918,105.205C729.223,108.21 726.681,110.445 723.292,111.909C719.903,113.373 716.59,114.105 713.355,114.105C704.651,114.105 697.564,111.369 692.095,105.898C686.626,100.428 683.891,93.069 683.891,83.823C683.891,74.731 686.645,67.488 692.153,62.094C697.66,56.701 704.612,54.004 713.009,54.004C721.559,54.004 727.452,56.624 730.687,61.863L730.687,55.275ZM715.551,68.682C711.237,68.682 707.655,70.05 704.805,72.785C701.955,75.521 700.53,79.2 700.53,83.823C700.53,88.446 701.955,92.106 704.805,94.803C707.655,97.5 711.237,98.848 715.551,98.848C720.018,98.848 723.658,97.384 726.469,94.456C729.281,91.528 730.687,88.177 730.687,84.401C730.687,80.086 729.339,76.388 726.643,73.305C723.947,70.223 720.249,68.682 715.551,68.682Z" style="fill:#3af;fill-rule:nonzero;"/><rect x="756.005" y="41.484" width="15.021" height="24.517" style="fill:#3af;fill-rule:nonzero;"/><path d="M816.512,71.225C812.507,68.528 808,67.18 802.994,67.18C800.375,67.18 798.352,67.604 796.927,68.451C795.502,69.299 794.79,70.416 794.79,71.803C794.79,75.039 797.601,76.696 803.225,76.773C806.537,76.85 809.445,77.139 811.948,77.64C814.452,78.14 817.032,78.988 819.69,80.182C822.347,81.377 824.408,83.245 825.871,85.788C827.335,88.331 828.067,91.451 828.067,95.15C828.067,100.235 826.006,104.666 821.885,108.441C817.764,112.217 811.505,114.105 803.109,114.105C793.018,114.105 784.083,110.868 776.303,104.396L783.467,92.838C789.321,97.461 796.099,99.773 803.802,99.773C806.19,99.773 808.154,99.33 809.695,98.444C811.236,97.558 811.967,96.46 811.89,95.15C811.89,92.068 808.655,90.372 802.185,90.064C799.335,89.987 796.581,89.602 793.923,88.908C791.266,88.215 788.724,87.194 786.297,85.846C783.871,84.497 781.926,82.609 780.462,80.182C778.999,77.755 778.267,74.962 778.267,71.803C778.267,65.87 780.655,61.343 785.431,58.223C790.207,55.102 796.022,53.542 802.878,53.542C811.736,53.542 819.016,56.007 824.716,60.939L816.512,71.225Z" style="fill:#3af;fill-rule:nonzero;"/></g></g><g><path d="M473.744,81.904L473.744,104.428L539.417,104.428L539.417,81.904L473.744,81.904Z" style="fill:#fff;"/><rect x="555.648" y="81.904" width="22.524" height="65.673" style="fill:#fff;"/><rect x="555.648" y="0" width="22.524" height="65.673" style="fill:#fff;"/><rect x="516.893" y="120.658" width="22.524" height="65.673" style="fill:#3af;"/><rect x="473.744" y="159.413" width="26.918" height="26.918" style="fill:#fff;"/><path d="M594.523,186.331L594.523,163.807L555.648,163.807L555.648,186.331L594.523,186.331Z" style="fill:#fff;"/><path d="M533.582,143.182L533.582,120.658L473.744,120.658L473.744,143.182L533.582,143.182Z" style="fill:#3af;"/></g></g></g></svg>