<?xml version="1.0" encoding="UTF-8" standalone="no"?><!DOCTYPE svg PUBLIC "-//W3C//DTD SVG 1.1//EN" "http://www.w3.org/Graphics/SVG/1.1/DTD/svg11.dtd"><svg width="1459px" height="576px" version="1.1" xmlns="http://www.w3.org/2000/svg" xmlns:xlink="http://www.w3.org/1999/xlink" xml:space="preserve" xmlns:serif="http://www.serif.com/" style="fill-rule:evenodd;clip-rule:evenodd;stroke-linejoin:round;stroke-miterlimit:2;"><g><g><g><path d="M214.387,460.051L181.719,460.051C178.758,460.051 176.103,458.226 175.043,455.461C175.043,455.461 154.259,401.268 146.46,380.932C146.003,379.741 144.857,378.958 143.581,378.965C142.306,378.972 141.168,379.769 140.725,380.964C133.182,401.311 113.134,455.387 113.134,455.387C112.095,458.19 109.42,460.051 106.43,460.051L73.762,460.051C70.778,460.051 68.107,458.198 67.063,455.402L0.452,276.952C-0.368,274.757 -0.06,272.299 1.276,270.374C2.613,268.449 4.807,267.301 7.15,267.301L51.813,267.301C54.819,267.301 57.504,269.181 58.532,272.006C58.532,272.006 79.956,336.419 87.863,360.192C88.278,361.442 89.446,362.286 90.764,362.289C92.081,362.292 93.253,361.453 93.674,360.205C101.685,336.47 123.39,272.165 123.39,272.165C124.372,269.258 127.097,267.301 130.165,267.301L156.197,267.301C159.23,267.301 161.932,269.214 162.941,272.074C162.941,272.074 185.687,336.586 194.058,360.33C194.497,361.573 195.68,362.396 196.998,362.375C198.315,362.354 199.472,361.493 199.87,360.236C207.415,336.424 227.791,272.115 227.791,272.115C228.787,269.234 231.501,267.301 234.549,267.301L279.212,267.301C281.544,267.301 283.73,268.439 285.068,270.348C286.406,272.258 286.729,274.701 285.933,276.893L221.107,455.342C220.081,458.169 217.394,460.051 214.387,460.051Z" style="fill:#3af;fill-rule:nonzero;"/><path d="M470.316,460.051L426.163,460.051C423.957,460.051 421.874,459.033 420.52,457.292C420.52,457.292 384.186,410.592 377.903,402.517C377.322,401.77 376.43,401.334 375.484,401.334C371.13,401.334 358.79,401.334 358.79,401.334L358.79,452.901C358.79,456.85 355.588,460.051 351.639,460.051L311.825,460.051C307.876,460.051 304.675,456.85 304.675,452.901L304.675,274.196C304.675,270.247 307.876,267.046 311.825,267.046L396.558,267.046C419.327,267.046 437.121,273.768 450.106,286.756C463.238,299.893 469.809,315.788 469.809,334.445C469.809,349.053 466.397,361.548 459.759,371.982C454.87,379.667 447.152,386.363 436.463,391.864C435.639,392.286 435.052,393.06 434.865,393.966C434.679,394.873 434.914,395.815 435.504,396.528C444.615,407.557 475.825,445.28 475.825,445.28C476.885,446.562 477.466,448.174 477.466,449.838L477.466,452.901C477.466,456.85 474.264,460.051 470.316,460.051ZM361.854,315.556C361.041,315.556 360.262,315.878 359.687,316.453C359.112,317.028 358.79,317.807 358.79,318.62C358.79,325.71 358.79,343.18 358.79,350.271C358.79,351.083 359.112,351.863 359.687,352.437C360.262,353.012 361.041,353.335 361.854,353.335C370.934,353.335 397.068,353.335 397.068,353.335C403.195,353.335 407.986,351.77 411.233,348.093C414.517,344.374 416.205,340.177 416.205,335.466C416.205,330.201 414.408,325.494 410.878,321.32C407.51,317.339 402.68,315.556 396.558,315.556C396.558,315.556 370.85,315.556 361.854,315.556Z" style="fill:#3af;fill-rule:nonzero;"/><path d="M648.519,431.282C648.038,430.151 646.928,429.416 645.699,429.416C634.362,429.416 578.929,429.416 567.592,429.416C566.363,429.416 565.253,430.151 564.772,431.282C562.222,437.283 554.399,455.697 554.399,455.697C553.277,458.337 550.686,460.051 547.818,460.051L504.941,460.051C502.517,460.051 500.257,458.823 498.939,456.787C497.622,454.752 497.425,452.188 498.417,449.975L578.555,271.27C579.708,268.7 582.263,267.046 585.08,267.046L628.467,267.046C631.284,267.046 633.838,268.7 634.991,271.27L715.129,449.975C716.121,452.188 715.925,454.752 714.607,456.787C713.289,458.823 711.03,460.051 708.605,460.051L665.473,460.051C662.605,460.051 660.014,458.337 658.892,455.697C658.892,455.697 651.069,437.283 648.519,431.282ZM609.557,339.498C609.078,338.365 607.969,337.628 606.739,337.626C605.509,337.624 604.397,338.358 603.915,339.49C599.734,349.305 592.028,367.399 588.526,375.62C588.123,376.567 588.221,377.652 588.789,378.511C589.356,379.369 590.316,379.885 591.345,379.885C599.03,379.885 614.321,379.885 621.996,379.885C623.023,379.885 623.982,379.371 624.55,378.515C625.118,377.658 625.219,376.575 624.819,375.629C621.349,367.413 613.705,349.319 609.557,339.498Z" style="fill:#3af;fill-rule:nonzero;"/><path d="M791.247,409.503C790.434,409.503 789.655,409.826 789.08,410.401C788.505,410.976 788.182,411.755 788.182,412.568C788.182,422.459 788.182,452.901 788.182,452.901C788.182,456.85 784.981,460.051 781.032,460.051L741.218,460.051C737.269,460.051 734.068,456.85 734.068,452.901L734.068,274.196C734.068,270.247 737.269,267.046 741.218,267.046L825.44,267.046C849.655,267.046 868.183,274.041 881.229,287.467C894.348,300.967 900.988,317.882 900.988,338.275C900.988,359.08 894.299,376.01 881.157,389.155C868.154,402.162 849.686,409.128 825.551,409.502C825.514,409.503 825.477,409.503 825.44,409.503C825.44,409.503 800.159,409.503 791.247,409.503ZM788.182,355.632C788.182,356.444 788.505,357.224 789.08,357.798C789.655,358.373 790.434,358.696 791.247,358.696C800.159,358.696 825.44,358.696 825.44,358.696C832.354,358.696 837.768,357.061 841.481,353.219C845.128,349.446 846.874,344.7 846.874,339.041C846.874,333.349 845.107,328.55 841.44,324.692C837.737,320.796 832.336,319.13 825.44,319.13C825.44,319.13 800.159,319.13 791.247,319.13C789.554,319.13 788.182,320.502 788.182,322.194C788.182,329.572 788.182,348.254 788.182,355.632Z" style="fill:#3af;fill-rule:nonzero;"/><path d="M976.48,409.503C975.667,409.503 974.888,409.826 974.313,410.401C973.738,410.976 973.416,411.755 973.416,412.568C973.416,422.459 973.416,452.901 973.416,452.901C973.416,456.85 970.214,460.051 966.265,460.051L926.451,460.051C922.502,460.051 919.301,456.85 919.301,452.901L919.301,274.196C919.301,270.247 922.502,267.046 926.451,267.046L1010.67,267.046C1034.89,267.046 1053.42,274.041 1066.46,287.467C1079.58,300.967 1086.22,317.882 1086.22,338.275C1086.22,359.08 1079.53,376.01 1066.39,389.155C1053.39,402.162 1034.92,409.128 1010.78,409.502C1010.75,409.503 1010.71,409.503 1010.67,409.503C1010.67,409.503 985.392,409.503 976.48,409.503ZM973.416,355.632C973.416,356.444 973.738,357.224 974.313,357.798C974.888,358.373 975.667,358.696 976.48,358.696C985.392,358.696 1010.67,358.696 1010.67,358.696C1017.59,358.696 1023,357.061 1026.71,353.219C1030.36,349.446 1032.11,344.7 1032.11,339.041C1032.11,333.349 1030.34,328.55 1026.67,324.692C1022.97,320.796 1017.57,319.13 1010.67,319.13C1010.67,319.13 985.392,319.13 976.48,319.13C974.788,319.13 973.416,320.502 973.416,322.194C973.416,329.572 973.416,348.254 973.416,355.632Z" style="fill:#3af;fill-rule:nonzero;"/><path d="M1249.73,460.051L1113.7,460.051C1109.75,460.051 1106.55,456.85 1106.55,452.901L1106.55,274.196C1106.55,270.247 1109.75,267.046 1113.7,267.046L1249.73,267.046C1253.68,267.046 1256.88,270.247 1256.88,274.196L1256.88,310.703C1256.88,314.652 1253.68,317.853 1249.73,317.853C1249.73,317.853 1178.32,317.853 1162.96,317.853C1162.15,317.853 1161.37,318.176 1160.79,318.751C1160.22,319.325 1159.9,320.105 1159.9,320.918C1159.9,324.717 1159.9,331.154 1159.9,334.953C1159.9,335.766 1160.22,336.545 1160.79,337.12C1161.37,337.694 1162.15,338.017 1162.96,338.017C1177.72,338.017 1249.73,338.017 1249.73,338.017C1253.68,338.017 1256.88,341.219 1256.88,345.168L1256.88,380.143C1256.88,384.092 1253.68,387.293 1249.73,387.293C1249.73,387.293 1177.72,387.293 1162.96,387.293C1161.27,387.293 1159.9,388.665 1159.9,390.357C1159.9,394.487 1159.9,401.795 1159.9,405.924C1159.9,406.737 1160.22,407.516 1160.79,408.091C1161.37,408.666 1162.15,408.989 1162.96,408.989C1178.7,408.989 1249.73,408.989 1249.73,408.989C1253.68,408.989 1256.88,412.19 1256.88,416.139L1256.88,452.901C1256.88,456.85 1253.68,460.051 1249.73,460.051Z" style="fill:#3af;fill-rule:nonzero;"/><path d="M1362.38,267.046C1378.37,267.046 1392.53,269.592 1404.88,274.588C1417.62,279.742 1427.8,286.914 1435.48,296.004C1443.03,304.934 1448.74,315.014 1452.6,326.247C1456.42,337.346 1458.35,349.353 1458.35,362.272C1458.35,372.389 1457.22,382.098 1454.96,391.402C1452.66,400.862 1449.04,409.77 1444.08,418.128C1439.06,426.594 1432.82,433.894 1425.38,440.035C1417.95,446.169 1408.77,451.087 1397.81,454.712C1387.09,458.255 1375.28,460.051 1362.38,460.051L1289.14,460.051C1285.19,460.051 1281.99,456.85 1281.99,452.901L1281.99,274.196C1281.99,270.247 1285.19,267.046 1289.14,267.046L1362.38,267.046ZM1335.59,405.924C1335.59,406.737 1335.91,407.516 1336.49,408.091C1337.06,408.666 1337.84,408.989 1338.66,408.989C1345.69,408.989 1362.38,408.989 1362.38,408.989C1370.42,408.989 1377.42,407.679 1383.37,404.927C1388.82,402.405 1393,399.029 1395.8,394.667C1398.88,389.855 1401.14,384.782 1402.57,379.444C1404.03,373.974 1404.75,368.079 1404.75,361.762C1404.75,349.064 1401.38,338.314 1394.43,329.575C1387.73,321.143 1376.94,317.343 1362.38,317.343C1362.38,317.343 1345.69,317.343 1338.66,317.343C1337.84,317.343 1337.06,317.666 1336.49,318.24C1335.91,318.815 1335.59,319.594 1335.59,320.407C1335.59,334.378 1335.59,391.954 1335.59,405.924Z" style="fill:#3af;fill-rule:nonzero;"/></g><g><g><g><path d="M592.615,105.517L592.615,136.145C596.698,130.828 602.475,128.17 609.947,128.17C625.122,128.17 632.709,137.301 632.709,155.562L632.709,186.421L616.071,186.421L616.071,155.678C616.071,151.748 615.089,148.704 613.124,146.547C611.16,144.389 608.522,143.311 605.21,143.311C601.589,143.311 598.566,144.524 596.139,146.951C593.713,149.379 592.5,152.827 592.5,157.296L592.5,186.421L575.861,186.421L575.861,105.517L592.615,105.517Z" style="fill:#fff;fill-rule:nonzero;"/><path d="M687.681,127.592L703.857,127.592L703.857,186.421L687.912,186.421L687.912,177.522C686.217,180.527 683.675,182.761 680.286,184.225C676.897,185.689 673.584,186.421 670.349,186.421C661.645,186.421 654.558,183.686 649.089,178.215C643.62,172.745 640.885,165.386 640.885,156.14C640.885,147.048 643.639,139.805 649.147,134.411C654.654,129.018 661.606,126.321 670.003,126.321C678.553,126.321 684.446,128.941 687.681,134.18L687.681,127.592ZM672.545,140.999C668.231,140.999 664.649,142.367 661.799,145.102C658.949,147.838 657.524,151.517 657.524,156.14C657.524,160.763 658.949,164.423 661.799,167.12C664.649,169.817 668.231,171.165 672.545,171.165C677.012,171.165 680.652,169.701 683.463,166.773C686.275,163.845 687.681,160.493 687.681,156.718C687.681,152.403 686.333,148.704 683.637,145.622C680.941,142.54 677.243,140.999 672.545,140.999Z" style="fill:#fff;fill-rule:nonzero;"/><path d="M754.133,186.421L754.133,154.522C754.133,145.661 750.204,141.23 742.348,141.23C738.573,141.23 735.473,142.598 733.046,145.333C730.62,148.069 729.407,151.363 729.407,155.215L729.407,186.421L712.999,186.421L712.999,127.592L729.407,127.592L729.407,134.874C733.797,129.172 738.958,126.321 746.507,126.321C753.979,126.321 759.91,128.401 764.301,132.562C768.692,136.723 770.887,144.004 770.887,154.406L770.887,186.421L754.133,186.421Z" style="fill:#fff;fill-rule:nonzero;"/><path d="M794.48,195.482C795.035,203.411 799.951,207.375 809.227,207.375C813.271,207.375 816.7,206.443 819.515,204.58C822.329,202.717 823.737,200.041 823.737,196.552C823.737,189.813 818.98,186.443 809.465,186.443C799.792,186.443 792.082,183.767 786.333,178.416C780.585,173.064 777.711,165.868 777.711,156.83C777.711,147.395 780.803,140.041 786.987,134.768C793.172,129.496 800.664,126.859 809.465,126.859C815.65,126.859 820.248,127.93 823.261,130.07L829.683,121.745L842.052,131.26L834.559,140.18C838.603,145.095 840.625,150.328 840.625,155.878C840.625,166.027 836.423,173.282 828.018,177.642C836.74,181.448 841.101,187.752 841.101,196.552C841.101,204.798 837.969,211.181 831.705,215.7C825.441,220.219 817.949,222.479 809.227,222.479C799.079,222.479 791.388,220.12 786.155,215.403C780.922,210.685 778.385,204.045 778.543,195.482L794.48,195.482ZM809.465,142.082C804.946,142.082 801.279,143.391 798.464,146.007C795.649,148.624 794.242,152.231 794.242,156.83C794.242,161.032 795.669,164.421 798.524,166.998C801.378,169.575 805.025,170.863 809.465,170.863C813.588,170.863 817.077,169.635 819.931,167.177C822.785,164.719 824.213,161.27 824.213,156.83C824.213,152.707 822.805,149.218 819.99,146.364C817.176,143.51 813.667,142.082 809.465,142.082Z" style="fill:#fff;"/><path d="M901.031,178.158C895.408,183.667 887.782,186.421 878.153,186.421C868.525,186.421 860.918,183.667 855.333,178.158C849.749,172.648 846.956,165.309 846.956,156.14C846.956,147.433 849.826,140.267 855.564,134.642C861.303,129.018 868.833,126.205 878.153,126.205C887.551,126.205 895.119,129.018 900.858,134.642C906.596,140.267 909.466,147.433 909.466,156.14C909.466,165.309 906.654,172.648 901.031,178.158ZM867.408,167.12C869.796,170.125 873.378,171.627 878.153,171.627C882.929,171.627 886.53,170.144 888.957,167.178C891.383,164.211 892.596,160.532 892.596,156.14C892.596,152.133 891.364,148.627 888.899,145.622C886.434,142.617 882.852,141.115 878.153,141.115C873.532,141.115 869.988,142.617 867.523,145.622C865.058,148.627 863.826,152.133 863.826,156.14C863.826,160.455 865.02,164.115 867.408,167.12Z" style="fill:#fff;fill-rule:nonzero;"/><path d="M934.396,127.592L934.396,158.336C934.396,167.197 938.324,171.627 946.181,171.627C949.956,171.627 953.056,170.26 955.483,167.524C957.909,164.789 959.122,161.495 959.122,157.642L959.122,127.592L975.53,127.592L975.53,186.421L959.122,186.421L959.122,177.753C954.809,183.532 949.648,186.421 942.022,186.421C938.479,186.421 935.34,185.998 932.605,185.15C929.871,184.302 927.329,182.896 924.979,180.931C922.63,178.967 920.82,176.077 919.549,172.263C918.278,168.449 917.642,163.845 917.642,158.451L917.642,127.592L934.396,127.592Z" style="fill:#fff;fill-rule:nonzero;"/><path d="M1010.51,113.801L1010.51,127.592L1024.95,127.592L1024.95,141.462L1010.4,141.462L1010.4,163.731C1010.4,168.816 1012.55,171.359 1016.87,171.359C1019.64,171.359 1021.95,170.897 1023.8,169.972L1027.61,183.841C1024.45,185.151 1020.45,185.999 1015.6,186.384C1008.89,186.692 1003.6,185.093 999.709,181.588C995.819,178.082 993.874,172.129 993.874,163.731L993.874,141.462L983.706,141.462L983.706,127.592L993.874,127.592L993.874,113.801L1010.51,113.801Z" style="fill:#fff;fill-rule:nonzero;"/></g><g><path d="M619.422,41.484L619.422,55.585L633.865,55.585L633.865,69.454L619.306,69.454L619.306,91.414C619.306,96.499 621.463,99.042 625.776,99.042C628.55,99.042 630.86,98.58 632.709,97.655L636.522,111.524C633.364,112.834 629.358,113.682 624.506,114.067C617.804,114.375 612.508,112.777 608.618,109.271C604.728,105.765 602.783,99.813 602.783,91.414L602.783,69.454L592.615,69.454L592.615,55.585L602.783,55.585L602.783,41.484L619.422,41.484Z" style="fill:#3af;fill-rule:nonzero;"/><path d="M687.681,55.275L703.857,55.275L703.857,114.105L687.912,114.105L687.912,105.205C686.217,108.21 683.675,110.445 680.286,111.909C676.897,113.373 673.584,114.105 670.349,114.105C661.645,114.105 654.558,111.369 649.089,105.898C643.62,100.428 640.885,93.069 640.885,83.823C640.885,74.731 643.639,67.488 649.147,62.094C654.654,56.701 661.606,54.004 670.003,54.004C678.553,54.004 684.446,56.624 687.681,61.863L687.681,55.275ZM672.545,68.682C668.231,68.682 664.649,70.05 661.799,72.785C658.949,75.521 657.524,79.2 657.524,83.823C657.524,88.446 658.949,92.106 661.799,94.803C664.649,97.5 668.231,98.848 672.545,98.848C677.012,98.848 680.652,97.384 683.463,94.456C686.275,91.528 687.681,88.177 687.681,84.401C687.681,80.086 686.333,76.388 683.637,73.305C680.941,70.223 677.243,68.682 672.545,68.682Z" style="fill:#3af;fill-rule:nonzero;"/><rect x="712.999" y="41.484" width="15.021" height="24.517" style="fill:#3af;fill-rule:nonzero;"/><path d="M773.506,71.225C769.501,68.528 764.994,67.18 759.987,67.18C757.368,67.18 755.346,67.604 753.921,68.451C752.496,69.299 751.784,70.416 751.784,71.803C751.784,75.039 754.595,76.696 760.219,76.773C763.531,76.85 766.439,77.139 768.942,77.64C771.446,78.14 774.026,78.988 776.684,80.182C779.341,81.377 781.402,83.245 782.865,85.788C784.329,88.331 785.061,91.451 785.061,95.15C785.061,100.235 783,104.666 778.879,108.441C774.758,112.217 768.499,114.105 760.103,114.105C750.012,114.105 741.077,110.868 733.297,104.396L740.461,92.838C746.315,97.461 753.093,99.773 760.796,99.773C763.184,99.773 765.148,99.33 766.689,98.444C768.23,97.558 768.961,96.46 768.884,95.15C768.884,92.068 765.649,90.372 759.179,90.064C756.329,89.987 753.575,89.602 750.917,88.908C748.26,88.215 745.718,87.194 743.291,85.846C740.865,84.497 738.92,82.609 737.456,80.182C735.993,77.755 735.261,74.962 735.261,71.803C735.261,65.87 737.649,61.343 742.425,58.223C747.201,55.102 753.016,53.542 759.872,53.542C768.73,53.542 776.01,56.007 781.71,60.939L773.506,71.225Z" style="fill:#3af;fill-rule:nonzero;"/></g></g><g><path d="M430.738,81.904L430.738,104.428L496.411,104.428L496.411,81.904L430.738,81.904Z" style="fill:#fff;"/><rect x="512.642" y="81.904" width="22.524" height="65.673" style="fill:#fff;"/><rect x="512.642" y="-0" width="22.524" height="65.673" style="fill:#fff;"/><rect x="473.887" y="120.658" width="22.524" height="65.673" style="fill:#3af;"/><rect x="430.738" y="159.413" width="26.918" height="26.918" style="fill:#fff;"/><path d="M551.517,186.331L551.517,163.807L512.642,163.807L512.642,186.331L551.517,186.331Z" style="fill:#fff;"/><path d="M490.576,143.182L490.576,120.658L430.738,120.658L430.738,143.182L490.576,143.182Z" style="fill:#3af;"/></g></g></g><path d="M426.248,566.343C423.008,569.583 419.411,571.944 415.457,573.427C411.503,574.909 407.138,575.651 402.36,575.651C394.947,575.651 388.824,574.25 383.992,571.45C379.159,568.649 375.604,564.929 373.325,560.289C371.046,555.648 369.906,550.5 369.906,544.844C369.906,539.463 371.101,534.369 373.489,529.564C375.878,524.759 379.516,520.861 384.403,517.868C389.291,514.875 395.276,513.379 402.36,513.379C411.092,513.379 418.78,516.536 425.424,522.851L415.045,532.983C413.014,531.116 410.954,529.798 408.868,529.029C406.781,528.26 404.612,527.876 402.36,527.876C398.736,527.876 395.743,528.713 393.382,530.388C391.021,532.063 389.291,534.205 388.193,536.813C387.094,539.421 386.545,542.126 386.545,544.926C386.545,547.727 387.081,550.377 388.151,552.875C389.222,555.374 390.938,557.419 393.3,559.012C395.661,560.604 398.681,561.401 402.36,561.401C404.612,561.401 407.001,560.893 409.527,559.877C412.053,558.861 414.332,557.337 416.363,555.305L426.248,566.343Z" style="fill:#0226b9;fill-rule:nonzero;"/><path d="M494.121,544.515C494.121,550.994 492.735,556.582 489.962,561.277C487.188,565.972 483.317,569.542 478.347,571.985C473.378,574.429 467.653,575.651 461.173,575.651C454.693,575.651 448.955,574.429 443.958,571.985C438.96,569.542 435.075,565.972 432.302,561.277C429.529,556.582 428.142,550.994 428.142,544.515C428.142,538.145 429.529,532.612 432.302,527.917C435.075,523.222 438.96,519.625 443.958,517.126C448.955,514.628 454.693,513.379 461.173,513.379C467.653,513.379 473.378,514.614 478.347,517.085C483.317,519.556 487.188,523.139 489.962,527.835C492.735,532.53 494.121,538.09 494.121,544.515ZM477.318,544.515C477.318,539.408 475.862,535.344 472.952,532.324C470.042,529.304 466.115,527.793 461.173,527.793C457.988,527.793 455.174,528.507 452.73,529.935C450.286,531.363 448.378,533.34 447.005,535.866C445.632,538.392 444.946,541.275 444.946,544.515C444.946,547.755 445.632,550.651 447.005,553.205C448.378,555.758 450.3,557.735 452.771,559.135C455.242,560.536 458.043,561.236 461.173,561.236C464.413,561.236 467.255,560.522 469.698,559.094C472.142,557.667 474.023,555.69 475.341,553.164C476.659,550.638 477.318,547.755 477.318,544.515Z" style="fill:#0226b9;fill-rule:nonzero;"/><path d="M537.284,556.87L534.318,556.87L519.492,538.996L519.492,574.168L502.853,574.168L502.853,514.861L520.398,514.861L536.048,534.96L551.616,514.861L569.161,514.861L569.161,574.168L552.522,574.168L552.522,538.831L537.284,556.87Z" style="fill:#0226b9;fill-rule:nonzero;"/><rect x="581.187" y="514.861" width="16.721" height="59.307" style="fill:#0226b9;fill-rule:nonzero;"/><path d="M648.814,535.207L648.814,514.861L665.7,514.861L665.7,574.168L651.449,574.168L626.656,542.291L626.903,555.223L626.903,574.168L609.935,574.168L609.935,514.861L624.185,514.861L649.308,547.315L648.814,535.207Z" style="fill:#0226b9;fill-rule:nonzero;"/><path d="M720.476,532.653C718.499,530.786 716.316,529.455 713.928,528.658C711.539,527.862 709.191,527.464 706.885,527.464C701.888,527.464 697.989,528.919 695.188,531.83C692.388,534.74 690.987,538.996 690.987,544.597C690.987,547.398 691.509,550.075 692.552,552.628C693.596,555.182 695.312,557.296 697.701,558.971C700.089,560.646 703.151,561.483 706.885,561.483C708.862,561.483 710.88,561.25 712.939,560.783C714.999,560.316 716.797,559.506 718.335,558.353L718.335,550.94L703.343,550.94L703.343,537.76L732.338,537.76L732.338,563.954C730.416,567.688 727.162,570.571 722.577,572.603C717.991,574.635 712.733,575.651 706.803,575.651C699.389,575.651 693.253,574.196 688.393,571.285C683.533,568.375 679.991,564.572 677.767,559.877C675.543,555.182 674.431,550.088 674.431,544.597C674.431,539.161 675.625,534.067 678.014,529.317C680.403,524.567 684.041,520.723 688.928,517.785C693.816,514.847 699.801,513.379 706.885,513.379C711.443,513.379 715.561,514.065 719.241,515.438C722.92,516.811 726.599,519.337 730.278,523.016L720.476,532.653Z" style="fill:#0226b9;fill-rule:nonzero;"/><path d="M797.74,531.006C794.116,528.26 789.475,526.887 783.819,526.887C781.568,526.887 779.66,527.258 778.095,527.999C776.529,528.741 775.747,529.853 775.747,531.335C775.747,532.653 776.145,533.655 776.941,534.342C777.738,535.028 778.781,535.509 780.071,535.783C781.362,536.058 783.215,536.332 785.631,536.607C792.605,537.376 798.358,539.284 802.888,542.332C807.419,545.38 809.684,550.033 809.684,556.294C809.684,560.577 808.476,564.174 806.059,567.084C803.643,569.995 800.472,572.15 796.546,573.55C792.619,574.951 788.322,575.651 783.655,575.651C779.756,575.651 776.365,575.376 773.482,574.827C770.599,574.278 767.826,573.248 765.162,571.738C762.499,570.228 759.822,568.045 757.131,565.19L766.357,554.564C770.969,559.067 776.763,561.318 783.737,561.318C786.538,561.318 788.789,560.852 790.491,559.918C792.194,558.984 793.045,557.694 793.045,556.047C793.045,552.971 789.75,551.159 783.16,550.61C778.218,550.171 774.003,549.361 770.516,548.18C767.029,546.999 764.229,545.064 762.115,542.373C760,539.682 758.943,536.003 758.943,531.335C758.943,527.382 760.11,524.046 762.444,521.327C764.778,518.609 767.826,516.605 771.587,515.314C775.349,514.024 779.426,513.379 783.819,513.379C788.377,513.379 792.441,513.928 796.01,515.026C799.58,516.124 802.929,517.909 806.059,520.38L797.74,531.006Z" style="fill:#0226b9;fill-rule:nonzero;"/><path d="M880.358,544.515C880.358,550.994 878.971,556.582 876.198,561.277C873.425,565.972 869.554,569.542 864.584,571.985C859.614,574.429 853.889,575.651 847.41,575.651C840.93,575.651 835.191,574.429 830.194,571.985C825.197,569.542 821.312,565.972 818.539,561.277C815.765,556.582 814.379,550.994 814.379,544.515C814.379,538.145 815.765,532.612 818.539,527.917C821.312,523.222 825.197,519.625 830.194,517.126C835.191,514.628 840.93,513.379 847.41,513.379C853.889,513.379 859.614,514.614 864.584,517.085C869.554,519.556 873.425,523.139 876.198,527.835C878.971,532.53 880.358,538.09 880.358,544.515ZM863.554,544.515C863.554,539.408 862.099,535.344 859.189,532.324C856.278,529.304 852.352,527.793 847.41,527.793C844.225,527.793 841.41,528.507 838.966,529.935C836.523,531.363 834.615,533.34 833.242,535.866C831.869,538.392 831.182,541.275 831.182,544.515C831.182,547.755 831.869,550.651 833.242,553.205C834.615,555.758 836.537,557.735 839.008,559.135C841.479,560.536 844.279,561.236 847.41,561.236C850.649,561.236 853.491,560.522 855.935,559.094C858.379,557.667 860.259,555.69 861.577,553.164C862.895,550.638 863.554,547.755 863.554,544.515Z" style="fill:#0226b9;fill-rule:nonzero;"/><path d="M951.773,544.515C951.773,550.994 950.387,556.582 947.614,561.277C944.84,565.972 940.969,569.542 935.999,571.985C931.03,574.429 925.305,575.651 918.825,575.651C912.345,575.651 906.607,574.429 901.609,571.985C896.612,569.542 892.727,565.972 889.954,561.277C887.181,556.582 885.794,550.994 885.794,544.515C885.794,538.145 887.181,532.612 889.954,527.917C892.727,523.222 896.612,519.625 901.609,517.126C906.607,514.628 912.345,513.379 918.825,513.379C925.305,513.379 931.03,514.614 935.999,517.085C940.969,519.556 944.84,523.139 947.614,527.835C950.387,532.53 951.773,538.09 951.773,544.515ZM934.97,544.515C934.97,539.408 933.514,535.344 930.604,532.324C927.694,529.304 923.767,527.793 918.825,527.793C915.64,527.793 912.826,528.507 910.382,529.935C907.938,531.363 906.03,533.34 904.657,535.866C903.284,538.392 902.598,541.275 902.598,544.515C902.598,547.755 903.284,550.651 904.657,553.205C906.03,555.758 907.952,557.735 910.423,559.135C912.894,560.536 915.695,561.236 918.825,561.236C922.065,561.236 924.907,560.522 927.35,559.094C929.794,557.667 931.675,555.69 932.993,553.164C934.311,550.638 934.97,547.755 934.97,544.515Z" style="fill:#0226b9;fill-rule:nonzero;"/><path d="M999.384,535.207L999.384,514.861L1016.27,514.861L1016.27,574.168L1002.02,574.168L977.226,542.291L977.473,555.223L977.473,574.168L960.505,574.168L960.505,514.861L974.755,514.861L999.878,547.315L999.384,535.207Z" style="fill:#0226b9;fill-rule:nonzero;"/><path d="M1034.97,540.561L1034.97,523.922L1027.39,523.922L1027.39,514.779L1053.09,514.779L1053.09,523.922L1045.26,523.922L1045.26,540.561L1034.97,540.561ZM1078.3,514.779L1088.34,514.779L1088.34,540.643L1078.21,540.643L1078.21,534.795L1078.54,528.699L1073.68,535.371L1071.29,535.371L1066.52,528.617L1066.85,534.795L1066.85,540.643L1056.71,540.643L1056.71,514.779L1066.76,514.779L1072.61,522.192L1078.3,514.779Z" style="fill:#0226b9;fill-rule:nonzero;"/></g></svg>