<?xml version="1.0" encoding="UTF-8" standalone="no"?><!DOCTYPE svg PUBLIC "-//W3C//DTD SVG 1.1//EN" "http://www.w3.org/Graphics/SVG/1.1/DTD/svg11.dtd"><svg width="165px" height="163px" version="1.1" xmlns="http://www.w3.org/2000/svg" xmlns:xlink="http://www.w3.org/1999/xlink" xml:space="preserve" xmlns:serif="http://www.serif.com/" style="fill-rule:evenodd;clip-rule:evenodd;stroke-linejoin:round;stroke-miterlimit:2;"><path d="M82.329,0C104.79,0 123.025,18.235 123.025,40.696C123.025,63.157 104.79,81.393 82.329,81.393C59.868,81.393 41.632,63.157 41.632,40.696C41.632,18.235 59.868,0 82.329,0ZM11.317,162.786C7.828,162.786 4.534,161.177 2.39,158.425C0.246,155.673 -0.509,152.085 0.344,148.702C8.321,117.751 42.019,94.479 82.329,94.479C122.639,94.479 156.336,117.751 164.303,148.705C165.156,152.085 164.401,155.669 162.259,158.418C160.117,161.168 156.826,162.776 153.34,162.776C122.187,162.786 42.47,162.786 11.317,162.786Z" style="fill:url(#_Linear1);"/><defs><linearGradient id="_Linear1" x1="0" y1="0" x2="1" y2="0" gradientUnits="userSpaceOnUse" gradientTransform="matrix(9.96768e-15,162.785,-162.785,9.96768e-15,82.3286,0)"><stop offset="0" style="stop-color:#76eeff;stop-opacity:1"/><stop offset="1" style="stop-color:#016ae9;stop-opacity:1"/></linearGradient></defs></svg>