<?xml version="1.0" encoding="UTF-8" standalone="no"?><!DOCTYPE svg PUBLIC "-//W3C//DTD SVG 1.1//EN" "http://www.w3.org/Graphics/SVG/1.1/DTD/svg11.dtd"><svg width="168px" height="163px" version="1.1" xmlns="http://www.w3.org/2000/svg" xmlns:xlink="http://www.w3.org/1999/xlink" xml:space="preserve" xmlns:serif="http://www.serif.com/" style="fill-rule:evenodd;clip-rule:evenodd;stroke-linejoin:round;stroke-miterlimit:2;"><path d="M167.519,31.816L167.519,95.449C167.519,113.009 153.257,127.266 135.69,127.266L78.734,127.266C78.734,127.266 52.393,150.671 39.915,161.758C38.74,162.802 37.069,163.076 35.623,162.463C34.176,161.849 33.212,160.458 33.147,158.888C32.655,147.086 31.829,127.266 31.829,127.266C14.262,127.266 0,113.009 0,95.449L0,31.816C0,14.256 14.262,0 31.829,0L135.69,0C153.257,0 167.519,14.256 167.519,31.816Z" style="fill:url(#_Linear1);"/><defs><linearGradient id="_Linear1" x1="0" y1="0" x2="1" y2="0" gradientUnits="userSpaceOnUse" gradientTransform="matrix(9.96776e-15,162.786,-162.786,9.96776e-15,83.7595,-1.81899e-12)"><stop offset="0" style="stop-color:#76eeff;stop-opacity:1"/><stop offset="1" style="stop-color:#016ae9;stop-opacity:1"/></linearGradient></defs></svg>