<?xml version="1.0" encoding="UTF-8" standalone="no"?><!DOCTYPE svg PUBLIC "-//W3C//DTD SVG 1.1//EN" "http://www.w3.org/Graphics/SVG/1.1/DTD/svg11.dtd"><svg width="168px" height="168px" version="1.1" xmlns="http://www.w3.org/2000/svg" xmlns:xlink="http://www.w3.org/1999/xlink" xml:space="preserve" xmlns:serif="http://www.serif.com/" style="fill-rule:evenodd;clip-rule:evenodd;stroke-linejoin:round;stroke-miterlimit:2;"><path d="M83.76,0C129.988,0 167.519,37.531 167.519,83.76C167.519,129.988 129.988,167.519 83.76,167.519C37.531,167.519 0,129.988 0,83.76C0,37.531 37.531,0 83.76,0ZM118.959,88.983C120.842,87.918 122.006,85.923 122.006,83.76C122.006,81.597 120.842,79.601 118.959,78.536C104.977,70.632 78.612,55.726 64.801,47.918C62.943,46.868 60.667,46.883 58.824,47.958C56.981,49.034 55.848,51.007 55.848,53.141C55.848,68.854 55.848,98.665 55.848,114.378C55.848,116.512 56.981,118.485 58.824,119.561C60.667,120.636 62.943,120.651 64.801,119.601C78.612,111.793 104.977,96.887 118.959,88.983Z" style="fill:url(#_Linear1);"/><defs><linearGradient id="_Linear1" x1="0" y1="0" x2="1" y2="0" gradientUnits="userSpaceOnUse" gradientTransform="matrix(1.02576e-14,-167.519,167.519,1.02576e-14,83.7595,167.519)"><stop offset="0" style="stop-color:#016ae9;stop-opacity:1"/><stop offset="1" style="stop-color:#76eeff;stop-opacity:1"/></linearGradient></defs></svg>