<?xml version="1.0" encoding="UTF-8" standalone="no"?><!DOCTYPE svg PUBLIC "-//W3C//DTD SVG 1.1//EN" "http://www.w3.org/Graphics/SVG/1.1/DTD/svg11.dtd"><svg width="1545px" height="668px" version="1.1" xmlns="http://www.w3.org/2000/svg" xmlns:xlink="http://www.w3.org/1999/xlink" xml:space="preserve" xmlns:serif="http://www.serif.com/" style="fill-rule:evenodd;clip-rule:evenodd;stroke-linejoin:round;stroke-miterlimit:2;"><g><path d="M281.284,645.844C278.044,649.084 274.447,651.445 270.493,652.928C266.539,654.41 262.174,655.152 257.396,655.152C249.983,655.152 243.86,653.751 239.028,650.951C234.195,648.15 230.64,644.43 228.361,639.79C226.082,635.149 224.942,630.001 224.942,624.345C224.942,618.964 226.137,613.87 228.525,609.065C230.914,604.26 234.552,600.361 239.439,597.369C244.327,594.376 250.312,592.879 257.396,592.879C266.128,592.879 273.816,596.037 280.46,602.352L270.081,612.484C268.05,610.617 265.99,609.299 263.904,608.53C261.817,607.761 259.648,607.377 257.396,607.377C253.772,607.377 250.779,608.214 248.418,609.889C246.057,611.564 244.327,613.706 243.229,616.314C242.13,618.922 241.581,621.627 241.581,624.427C241.581,627.228 242.116,629.878 243.187,632.376C244.258,634.875 245.974,636.92 248.335,638.513C250.697,640.105 253.717,640.902 257.396,640.902C259.648,640.902 262.036,640.394 264.563,639.378C267.089,638.362 269.367,636.838 271.399,634.806L281.284,645.844Z" style="fill:#0226b9;fill-rule:nonzero;"/><path d="M349.157,624.016C349.157,630.495 347.771,636.083 344.998,640.778C342.224,645.473 338.353,649.043 333.383,651.486C328.414,653.93 322.689,655.152 316.209,655.152C309.729,655.152 303.991,653.93 298.994,651.486C293.996,649.043 290.111,645.473 287.338,640.778C284.565,636.083 283.178,630.495 283.178,624.016C283.178,617.646 284.565,612.113 287.338,607.418C290.111,602.723 293.996,599.126 298.994,596.627C303.991,594.129 309.729,592.879 316.209,592.879C322.689,592.879 328.414,594.115 333.383,596.586C338.353,599.057 342.224,602.64 344.998,607.335C347.771,612.031 349.157,617.591 349.157,624.016ZM332.354,624.016C332.354,618.909 330.898,614.845 327.988,611.825C325.078,608.804 321.151,607.294 316.209,607.294C313.024,607.294 310.21,608.008 307.766,609.436C305.322,610.864 303.414,612.841 302.041,615.367C300.668,617.893 299.982,620.776 299.982,624.016C299.982,627.255 300.668,630.152 302.041,632.706C303.414,635.259 305.336,637.236 307.807,638.636C310.278,640.037 313.079,640.737 316.209,640.737C319.449,640.737 322.291,640.023 324.734,638.595C327.178,637.167 329.059,635.191 330.377,632.665C331.695,630.138 332.354,627.255 332.354,624.016Z" style="fill:#0226b9;fill-rule:nonzero;"/><path d="M392.32,636.371L389.354,636.371L374.527,618.497L374.527,653.669L357.889,653.669L357.889,594.362L375.434,594.362L391.084,614.461L406.652,594.362L424.197,594.362L424.197,653.669L407.558,653.669L407.558,618.332L392.32,636.371Z" style="fill:#0226b9;fill-rule:nonzero;"/><rect x="436.223" y="594.362" width="16.721" height="59.307" style="fill:#0226b9;fill-rule:nonzero;"/><path d="M503.85,614.708L503.85,594.362L520.736,594.362L520.736,653.669L506.485,653.669L481.692,621.792L481.939,634.724L481.939,653.669L464.971,653.669L464.971,594.362L479.221,594.362L504.344,626.816L503.85,614.708Z" style="fill:#0226b9;fill-rule:nonzero;"/><path d="M575.512,612.154C573.535,610.287 571.352,608.955 568.964,608.159C566.575,607.363 564.227,606.965 561.921,606.965C556.924,606.965 553.025,608.42 550.224,611.33C547.424,614.241 546.023,618.497 546.023,624.098C546.023,626.899 546.545,629.576 547.588,632.129C548.632,634.683 550.348,636.797 552.737,638.472C555.125,640.147 558.187,640.984 561.921,640.984C563.898,640.984 565.916,640.751 567.975,640.284C570.034,639.817 571.833,639.007 573.37,637.854L573.37,630.44L558.379,630.44L558.379,617.261L587.374,617.261L587.374,643.455C585.452,647.189 582.198,650.072 577.613,652.104C573.027,654.136 567.769,655.152 561.839,655.152C554.425,655.152 548.289,653.697 543.429,650.786C538.569,647.876 535.027,644.073 532.803,639.378C530.579,634.683 529.467,629.589 529.467,624.098C529.467,618.661 530.661,613.568 533.05,608.818C535.439,604.068 539.077,600.224 543.964,597.286C548.851,594.348 554.837,592.879 561.921,592.879C566.479,592.879 570.597,593.566 574.277,594.939C577.956,596.312 581.635,598.838 585.314,602.517L575.512,612.154Z" style="fill:#0226b9;fill-rule:nonzero;"/><path d="M652.776,610.507C649.152,607.761 644.511,606.388 638.855,606.388C636.604,606.388 634.696,606.759 633.13,607.5C631.565,608.242 630.783,609.354 630.783,610.836C630.783,612.154 631.181,613.156 631.977,613.843C632.774,614.529 633.817,615.01 635.107,615.284C636.398,615.559 638.251,615.833 640.667,616.108C647.641,616.877 653.394,618.785 657.924,621.833C662.454,624.88 664.72,629.534 664.72,635.795C664.72,640.078 663.512,643.675 661.095,646.585C658.679,649.496 655.508,651.651 651.582,653.051C647.655,654.452 643.358,655.152 638.691,655.152C634.792,655.152 631.401,654.877 628.518,654.328C625.635,653.779 622.862,652.749 620.198,651.239C617.535,649.729 614.858,647.546 612.167,644.691L621.393,634.065C626.005,638.568 631.799,640.819 638.773,640.819C641.573,640.819 643.825,640.352 645.527,639.419C647.23,638.485 648.081,637.195 648.081,635.547C648.081,632.472 644.786,630.66 638.196,630.111C633.254,629.672 629.039,628.862 625.552,627.681C622.065,626.5 619.265,624.565 617.151,621.874C615.036,619.183 613.979,615.504 613.979,610.836C613.979,606.882 615.146,603.546 617.48,600.828C619.814,598.11 622.862,596.106 626.623,594.815C630.385,593.525 634.462,592.879 638.855,592.879C643.413,592.879 647.477,593.429 651.046,594.527C654.616,595.625 657.965,597.41 661.095,599.881L652.776,610.507Z" style="fill:#0226b9;fill-rule:nonzero;"/><path d="M735.394,624.016C735.394,630.495 734.007,636.083 731.234,640.778C728.461,645.473 724.589,649.043 719.62,651.486C714.65,653.93 708.925,655.152 702.445,655.152C695.966,655.152 690.227,653.93 685.23,651.486C680.233,649.043 676.348,645.473 673.575,640.778C670.801,636.083 669.415,630.495 669.415,624.016C669.415,617.646 670.801,612.113 673.575,607.418C676.348,602.723 680.233,599.126 685.23,596.627C690.227,594.129 695.966,592.879 702.445,592.879C708.925,592.879 714.65,594.115 719.62,596.586C724.589,599.057 728.461,602.64 731.234,607.335C734.007,612.031 735.394,617.591 735.394,624.016ZM718.59,624.016C718.59,618.909 717.135,614.845 714.224,611.825C711.314,608.804 707.388,607.294 702.445,607.294C699.26,607.294 696.446,608.008 694.002,609.436C691.559,610.864 689.651,612.841 688.278,615.367C686.905,617.893 686.218,620.776 686.218,624.016C686.218,627.255 686.905,630.152 688.278,632.706C689.651,635.259 691.573,637.236 694.044,638.636C696.515,640.037 699.315,640.737 702.445,640.737C705.685,640.737 708.527,640.023 710.971,638.595C713.415,637.167 715.295,635.191 716.613,632.665C717.931,630.138 718.59,627.255 718.59,624.016Z" style="fill:#0226b9;fill-rule:nonzero;"/><path d="M806.809,624.016C806.809,630.495 805.423,636.083 802.649,640.778C799.876,645.473 796.005,649.043 791.035,651.486C786.066,653.93 780.341,655.152 773.861,655.152C767.381,655.152 761.643,653.93 756.645,651.486C751.648,649.043 747.763,645.473 744.99,640.778C742.217,636.083 740.83,630.495 740.83,624.016C740.83,617.646 742.217,612.113 744.99,607.418C747.763,602.723 751.648,599.126 756.645,596.627C761.643,594.129 767.381,592.879 773.861,592.879C780.341,592.879 786.066,594.115 791.035,596.586C796.005,599.057 799.876,602.64 802.649,607.335C805.423,612.031 806.809,617.591 806.809,624.016ZM790.006,624.016C790.006,618.909 788.55,614.845 785.64,611.825C782.729,608.804 778.803,607.294 773.861,607.294C770.676,607.294 767.862,608.008 765.418,609.436C762.974,610.864 761.066,612.841 759.693,615.367C758.32,617.893 757.634,620.776 757.634,624.016C757.634,627.255 758.32,630.152 759.693,632.706C761.066,635.259 762.988,637.236 765.459,638.636C767.93,640.037 770.731,640.737 773.861,640.737C777.101,640.737 779.943,640.023 782.386,638.595C784.83,637.167 786.711,635.191 788.029,632.665C789.347,630.138 790.006,627.255 790.006,624.016Z" style="fill:#0226b9;fill-rule:nonzero;"/><path d="M854.42,614.708L854.42,594.362L871.306,594.362L871.306,653.669L857.055,653.669L832.262,621.792L832.509,634.724L832.509,653.669L815.541,653.669L815.541,594.362L829.791,594.362L854.914,626.816L854.42,614.708Z" style="fill:#0226b9;fill-rule:nonzero;"/><path d="M927.812,594.362C923.309,598.096 919.726,602.805 917.062,608.489C914.399,614.172 913.067,620.227 913.067,626.651C913.067,632.747 914.331,638.705 916.857,644.526C919.383,650.347 922.76,655.014 926.988,658.529L920.234,667.507C913.15,662.785 907.837,656.936 904.295,649.962C900.753,642.988 898.982,635.218 898.982,626.651C898.982,618.524 900.945,610.891 904.872,603.752C908.798,596.614 914.083,590.71 920.728,586.043L927.812,594.362Z" style="fill:#0226b9;fill-rule:nonzero;"/><path d="M948.734,643.949L944.863,653.669L927.071,653.669L953.676,594.362L970.645,594.362L997.168,653.669L979.211,653.669L975.34,643.949L948.734,643.949ZM954.418,629.946L969.656,629.946L962.078,611.001L954.418,629.946Z" style="fill:#0226b9;fill-rule:nonzero;"/><path d="M1042.8,612.154C1040.83,610.287 1038.64,608.955 1036.25,608.159C1033.86,607.363 1031.52,606.965 1029.21,606.965C1024.21,606.965 1020.31,608.42 1017.51,611.33C1014.71,614.241 1013.31,618.497 1013.31,624.098C1013.31,626.899 1013.83,629.576 1014.88,632.129C1015.92,634.683 1017.64,636.797 1020.03,638.472C1022.42,640.147 1025.48,640.984 1029.21,640.984C1031.19,640.984 1033.2,640.751 1035.27,640.284C1037.32,639.817 1039.12,639.007 1040.66,637.854L1040.66,630.44L1025.67,630.44L1025.67,617.261L1054.66,617.261L1054.66,643.455C1052.74,647.189 1049.49,650.072 1044.9,652.104C1040.32,654.136 1035.06,655.152 1029.13,655.152C1021.72,655.152 1015.58,653.697 1010.72,650.786C1005.86,647.876 1002.32,644.073 1000.09,639.378C997.868,634.683 996.756,629.589 996.756,624.098C996.756,618.661 997.951,613.568 1000.34,608.818C1002.73,604.068 1006.37,600.224 1011.25,597.286C1016.14,594.348 1022.13,592.879 1029.21,592.879C1033.77,592.879 1037.89,593.566 1041.57,594.939C1045.25,596.312 1048.92,598.838 1052.6,602.517L1042.8,612.154Z" style="fill:#0226b9;fill-rule:nonzero;"/><path d="M1077.81,643.949L1073.94,653.669L1056.14,653.669L1082.75,594.362L1099.72,594.362L1126.24,653.669L1108.29,653.669L1104.41,643.949L1077.81,643.949ZM1083.49,629.946L1098.73,629.946L1091.15,611.001L1083.49,629.946Z" style="fill:#0226b9;fill-rule:nonzero;"/><rect x="1131.02" y="594.362" width="16.721" height="59.307" style="fill:#0226b9;fill-rule:nonzero;"/><path d="M1198.65,614.708L1198.65,594.362L1215.53,594.362L1215.53,653.669L1201.28,653.669L1176.49,621.792L1176.74,634.724L1176.74,653.669L1159.77,653.669L1159.77,594.362L1174.02,594.362L1199.14,626.816L1198.65,614.708Z" style="fill:#0226b9;fill-rule:nonzero;"/><path d="M1229.21,586.043C1235.8,590.71 1241.05,596.614 1244.98,603.752C1248.91,610.891 1250.87,618.524 1250.87,626.651C1250.87,635.218 1249.1,642.988 1245.56,649.962C1242.02,656.936 1236.7,662.785 1229.62,667.507L1222.86,658.529C1227.15,655.014 1230.54,650.347 1233.04,644.526C1235.54,638.705 1236.79,632.747 1236.79,626.651C1236.79,620.227 1235.45,614.172 1232.79,608.489C1230.13,602.805 1226.54,598.096 1222.04,594.362L1229.21,586.043Z" style="fill:#0226b9;fill-rule:nonzero;"/><path d="M1265.94,620.062L1265.94,603.423L1258.37,603.423L1258.37,594.28L1284.07,594.28L1284.07,603.423L1276.24,603.423L1276.24,620.062L1265.94,620.062ZM1309.27,594.28L1319.32,594.28L1319.32,620.144L1309.19,620.144L1309.19,614.296L1309.52,608.2L1304.66,614.872L1302.27,614.872L1297.49,608.118L1297.82,614.296L1297.82,620.144L1287.69,620.144L1287.69,594.28L1297.74,594.28L1303.59,601.693L1309.27,594.28Z" style="fill:#0226b9;fill-rule:nonzero;"/><path d="M66.757,259.326L1405.39,259.071C1427.46,259.071 1446.96,262.853 1464.01,269.752C1483.8,277.754 1499.4,289.162 1511.33,303.275C1522.32,316.274 1530.65,330.934 1536.27,347.282C1541.58,362.699 1544.36,379.359 1544.36,397.303C1544.36,410.943 1542.8,424.03 1539.76,436.574C1536.45,450.211 1531.22,463.053 1524.07,475.101C1516.47,487.912 1507.02,498.944 1495.76,508.235C1484.56,517.481 1470.84,525.111 1454.31,530.575C1443.39,534.184 1431.68,536.553 1419.14,537.551C1418.61,537.593 1418.08,537.614 1417.54,537.614L116.768,538.088C95.833,538.088 77.1,525.085 69.779,505.472L3.167,327.023C-2.581,311.624 -0.419,294.385 8.953,280.883C18.326,267.38 33.72,259.326 50.156,259.326L66.757,259.326Z" style="fill:#3af;"/><path d="M257.393,495.082L224.725,495.082C221.764,495.082 219.109,493.257 218.049,490.492L189.466,415.963C189.009,414.772 187.863,413.989 186.587,413.996C185.312,414.003 184.175,414.799 183.731,415.995L156.14,490.418C155.101,493.221 152.426,495.082 149.436,495.082L116.768,495.082C113.784,495.082 111.113,493.229 110.069,490.433L43.458,311.983C42.638,309.788 42.946,307.33 44.282,305.405C45.619,303.48 47.813,302.332 50.156,302.332L94.819,302.332C97.825,302.332 100.511,304.212 101.539,307.037L130.869,395.223C131.284,396.473 132.452,397.317 133.77,397.32C135.087,397.323 136.259,396.484 136.68,395.236L166.396,307.196C167.378,304.289 170.103,302.332 173.171,302.332L199.203,302.332C202.236,302.332 204.938,304.245 205.947,307.105L237.064,395.361C237.503,396.603 238.686,397.427 240.004,397.406C241.321,397.385 242.478,396.524 242.876,395.267L270.797,307.146C271.793,304.265 274.507,302.332 277.555,302.332L322.218,302.332C324.55,302.332 326.736,303.469 328.074,305.379C329.412,307.289 329.735,309.732 328.939,311.924L264.113,490.373C263.087,493.2 260.401,495.082 257.393,495.082ZM513.322,495.082L469.169,495.082C466.963,495.082 464.88,494.064 463.526,492.323L420.909,437.548C420.328,436.801 419.436,436.365 418.49,436.365C414.137,436.365 401.796,436.365 401.796,436.365L401.796,487.932C401.796,491.881 398.594,495.082 394.645,495.082L354.831,495.082C350.882,495.082 347.681,491.881 347.681,487.932L347.681,309.227C347.681,305.278 350.882,302.077 354.831,302.077L439.564,302.077C462.333,302.077 480.127,308.799 493.112,321.787C506.244,334.924 512.815,350.819 512.815,369.476C512.815,384.083 509.403,396.579 502.765,407.013C497.876,414.698 490.158,421.394 479.469,426.895C478.645,427.317 478.058,428.091 477.871,428.997C477.685,429.904 477.92,430.846 478.51,431.559C487.621,442.588 518.831,480.311 518.831,480.311C519.891,481.593 520.472,483.204 520.472,484.868L520.472,487.932C520.472,491.881 517.271,495.082 513.322,495.082ZM404.86,350.587C404.047,350.587 403.268,350.909 402.693,351.484C402.118,352.059 401.796,352.838 401.796,353.651L401.796,385.301C401.796,386.114 402.118,386.894 402.693,387.468C403.268,388.043 404.047,388.366 404.86,388.366L440.074,388.366C446.201,388.366 450.992,386.801 454.239,383.124C457.523,379.405 459.211,375.208 459.211,370.497C459.211,365.232 457.414,360.525 453.884,356.351C450.516,352.37 445.686,350.587 439.564,350.587L404.86,350.587ZM691.525,466.313C691.044,465.182 689.934,464.447 688.705,464.447L610.598,464.447C609.369,464.447 608.259,465.182 607.778,466.313L597.405,490.728C596.283,493.368 593.692,495.082 590.824,495.082L547.947,495.082C545.523,495.082 543.263,493.853 541.945,491.818C540.628,489.783 540.431,487.219 541.423,485.006L621.561,306.301C622.714,303.731 625.269,302.077 628.086,302.077L671.473,302.077C674.29,302.077 676.844,303.731 677.997,306.301L758.135,485.006C759.127,487.219 758.931,489.783 757.613,491.818C756.295,493.853 754.036,495.082 751.611,495.082L708.479,495.082C705.611,495.082 703.02,493.368 701.898,490.728L691.525,466.313ZM652.563,374.529C652.084,373.396 650.975,372.659 649.745,372.657C648.515,372.655 647.403,373.389 646.921,374.521L631.532,410.651C631.129,411.598 631.227,412.683 631.795,413.542C632.362,414.4 633.322,414.916 634.351,414.916L665.002,414.916C666.029,414.916 666.988,414.402 667.556,413.545C668.124,412.689 668.225,411.606 667.825,410.659L652.563,374.529ZM834.253,444.534C833.44,444.534 832.661,444.857 832.086,445.432C831.511,446.006 831.188,446.786 831.188,447.599L831.188,487.932C831.188,491.881 827.987,495.082 824.038,495.082L784.224,495.082C780.275,495.082 777.074,491.881 777.074,487.932L777.074,309.227C777.074,305.278 780.275,302.077 784.224,302.077L868.446,302.077C892.661,302.077 911.189,309.072 924.235,322.498C937.354,335.998 943.994,352.913 943.994,373.306C943.994,394.111 937.305,411.04 924.163,424.186C911.16,437.193 892.692,444.159 868.557,444.533C868.52,444.534 868.483,444.534 868.446,444.534L834.253,444.534ZM831.188,390.663C831.188,391.475 831.511,392.255 832.086,392.829C832.661,393.404 833.44,393.727 834.253,393.727L868.446,393.727C875.36,393.727 880.774,392.092 884.487,388.25C888.134,384.477 889.88,379.731 889.88,374.071C889.88,368.38 888.113,363.58 884.447,359.723C880.743,355.827 875.342,354.161 868.446,354.161L834.253,354.161C832.56,354.161 831.188,355.533 831.188,357.225L831.188,390.663ZM1019.49,444.534C1018.67,444.534 1017.89,444.857 1017.32,445.432C1016.74,446.006 1016.42,446.786 1016.42,447.599L1016.42,487.932C1016.42,491.881 1013.22,495.082 1009.27,495.082L969.457,495.082C965.508,495.082 962.307,491.881 962.307,487.932L962.307,309.227C962.307,305.278 965.508,302.077 969.457,302.077L1053.68,302.077C1077.89,302.077 1096.42,309.072 1109.47,322.498C1122.59,335.998 1129.23,352.913 1129.23,373.306C1129.23,394.111 1122.54,411.04 1109.4,424.186C1096.39,437.193 1077.92,444.159 1053.79,444.533C1053.75,444.534 1053.72,444.534 1053.68,444.534L1019.49,444.534ZM1016.42,390.663C1016.42,391.475 1016.74,392.255 1017.32,392.829C1017.89,393.404 1018.67,393.727 1019.49,393.727L1053.68,393.727C1060.59,393.727 1066.01,392.092 1069.72,388.25C1073.37,384.477 1075.11,379.731 1075.11,374.071C1075.11,368.38 1073.35,363.58 1069.68,359.723C1065.98,355.827 1060.58,354.161 1053.68,354.161L1019.49,354.161C1017.79,354.161 1016.42,355.533 1016.42,357.225L1016.42,390.663ZM1292.73,495.082L1156.7,495.082C1152.75,495.082 1149.55,491.881 1149.55,487.932L1149.55,309.227C1149.55,305.278 1152.75,302.077 1156.7,302.077L1292.73,302.077C1296.68,302.077 1299.88,305.278 1299.88,309.227L1299.88,345.734C1299.88,349.683 1296.68,352.884 1292.73,352.884L1205.97,352.884C1205.15,352.884 1204.37,353.207 1203.8,353.782C1203.23,354.356 1202.9,355.136 1202.9,355.949L1202.9,369.984C1202.9,370.797 1203.23,371.576 1203.8,372.151C1204.37,372.725 1205.15,373.048 1205.97,373.048L1292.73,373.048C1296.68,373.048 1299.88,376.25 1299.88,380.198L1299.88,415.174C1299.88,419.123 1296.68,422.324 1292.73,422.324L1205.97,422.324C1204.27,422.324 1202.9,423.696 1202.9,425.388L1202.9,440.955C1202.9,441.768 1203.23,442.547 1203.8,443.122C1204.37,443.697 1205.15,444.02 1205.97,444.02L1292.73,444.02C1296.68,444.02 1299.88,447.221 1299.88,451.17L1299.88,487.932C1299.88,491.881 1296.68,495.082 1292.73,495.082ZM1405.39,302.077C1421.38,302.077 1435.54,304.623 1447.89,309.619C1460.63,314.773 1470.8,321.945 1478.49,331.035C1486.03,339.965 1491.74,350.045 1495.61,361.278C1499.43,372.377 1501.36,384.384 1501.36,397.303C1501.36,407.42 1500.22,417.129 1497.96,426.433C1495.67,435.893 1492.04,444.801 1487.09,453.159C1482.06,461.625 1475.83,468.925 1468.39,475.066C1460.95,481.2 1451.78,486.118 1440.81,489.743C1430.1,493.286 1418.29,495.082 1405.39,495.082L1332.14,495.082C1328.19,495.082 1324.99,491.881 1324.99,487.932L1324.99,309.227C1324.99,305.278 1328.19,302.077 1332.14,302.077L1405.39,302.077ZM1378.6,440.955C1378.6,441.768 1378.92,442.547 1379.5,443.122C1380.07,443.697 1380.85,444.02 1381.66,444.02L1405.39,444.02C1413.42,444.02 1420.43,442.71 1426.38,439.958C1431.83,437.436 1436.01,434.06 1438.8,429.698C1441.88,424.886 1444.14,419.813 1445.57,414.475C1447.04,409.005 1447.75,403.11 1447.75,396.793C1447.75,384.095 1444.38,373.345 1437.44,364.606C1430.74,356.173 1419.95,352.374 1405.39,352.374L1381.66,352.374C1380.85,352.374 1380.07,352.696 1379.5,353.271C1378.92,353.846 1378.6,354.625 1378.6,355.438L1378.6,440.955Z" style="fill:#fff;"/><g><g><g><path d="M635.621,105.517L635.621,136.145C639.704,130.828 645.481,128.17 652.953,128.17C668.128,128.17 675.715,137.301 675.715,155.562L675.715,186.421L659.077,186.421L659.077,155.678C659.077,151.748 658.095,148.704 656.13,146.547C654.166,144.389 651.528,143.311 648.216,143.311C644.595,143.311 641.572,144.524 639.145,146.951C636.719,149.379 635.506,152.827 635.506,157.296L635.506,186.421L618.868,186.421L618.868,105.517L635.621,105.517Z" style="fill:#fff;fill-rule:nonzero;"/><path d="M730.687,127.592L746.863,127.592L746.863,186.421L730.918,186.421L730.918,177.522C729.223,180.527 726.681,182.761 723.292,184.225C719.903,185.689 716.59,186.421 713.355,186.421C704.651,186.421 697.564,183.686 692.095,178.215C686.626,172.745 683.891,165.386 683.891,156.14C683.891,147.048 686.645,139.805 692.153,134.411C697.66,129.018 704.612,126.321 713.009,126.321C721.559,126.321 727.452,128.941 730.687,134.18L730.687,127.592ZM715.551,140.999C711.237,140.999 707.655,142.367 704.805,145.102C701.955,147.838 700.53,151.517 700.53,156.14C700.53,160.763 701.955,164.423 704.805,167.12C707.655,169.817 711.237,171.165 715.551,171.165C720.018,171.165 723.658,169.701 726.469,166.773C729.281,163.845 730.687,160.493 730.687,156.718C730.687,152.403 729.339,148.704 726.643,145.622C723.947,142.54 720.249,140.999 715.551,140.999Z" style="fill:#fff;fill-rule:nonzero;"/><path d="M797.139,186.421L797.139,154.522C797.139,145.661 793.211,141.23 785.354,141.23C781.579,141.23 778.479,142.598 776.052,145.333C773.626,148.069 772.413,151.363 772.413,155.215L772.413,186.421L756.005,186.421L756.005,127.592L772.413,127.592L772.413,134.874C776.803,129.172 781.964,126.321 789.513,126.321C796.985,126.321 802.916,128.401 807.307,132.562C811.698,136.723 813.893,144.004 813.893,154.406L813.893,186.421L797.139,186.421Z" style="fill:#fff;fill-rule:nonzero;"/><path d="M837.486,195.482C838.041,203.411 842.957,207.375 852.233,207.375C856.277,207.375 859.706,206.443 862.521,204.58C865.335,202.717 866.743,200.041 866.743,196.552C866.743,189.813 861.986,186.443 852.471,186.443C842.798,186.443 835.088,183.767 829.339,178.416C823.591,173.064 820.717,165.868 820.717,156.83C820.717,147.395 823.809,140.041 829.993,134.768C836.178,129.496 843.67,126.859 852.471,126.859C858.656,126.859 863.254,127.93 866.267,130.07L872.689,121.745L885.058,131.26L877.565,140.18C881.609,145.095 883.631,150.328 883.631,155.878C883.631,166.027 879.429,173.282 871.024,177.642C879.746,181.448 884.107,187.752 884.107,196.552C884.107,204.798 880.975,211.181 874.711,215.7C868.447,220.219 860.955,222.479 852.233,222.479C842.085,222.479 834.394,220.12 829.161,215.403C823.928,210.685 821.391,204.045 821.549,195.482L837.486,195.482ZM852.471,142.082C847.952,142.082 844.285,143.391 841.47,146.007C838.656,148.624 837.248,152.231 837.248,156.83C837.248,161.032 838.675,164.421 841.53,166.998C844.384,169.575 848.031,170.863 852.471,170.863C856.594,170.863 860.083,169.635 862.937,167.177C865.791,164.719 867.219,161.27 867.219,156.83C867.219,152.707 865.811,149.218 862.997,146.364C860.182,143.51 856.673,142.082 852.471,142.082Z" style="fill:#fff;"/><path d="M944.037,178.158C938.414,183.667 930.788,186.421 921.159,186.421C911.531,186.421 903.924,183.667 898.339,178.158C892.755,172.648 889.962,165.309 889.962,156.14C889.962,147.433 892.832,140.267 898.571,134.642C904.309,129.018 911.839,126.205 921.159,126.205C930.557,126.205 938.125,129.018 943.864,134.642C949.602,140.267 952.472,147.433 952.472,156.14C952.472,165.309 949.66,172.648 944.037,178.158ZM910.414,167.12C912.802,170.125 916.384,171.627 921.159,171.627C925.935,171.627 929.536,170.144 931.963,167.178C934.389,164.211 935.602,160.532 935.602,156.14C935.602,152.133 934.37,148.627 931.905,145.622C929.44,142.617 925.858,141.115 921.159,141.115C916.538,141.115 912.994,142.617 910.529,145.622C908.064,148.627 906.832,152.133 906.832,156.14C906.832,160.455 908.026,164.115 910.414,167.12Z" style="fill:#fff;fill-rule:nonzero;"/><path d="M977.402,127.592L977.402,158.336C977.402,167.197 981.331,171.627 989.188,171.627C992.962,171.627 996.062,170.26 998.489,167.524C1000.92,164.789 1002.13,161.495 1002.13,157.642L1002.13,127.592L1018.54,127.592L1018.54,186.421L1002.13,186.421L1002.13,177.753C997.815,183.532 992.654,186.421 985.028,186.421C981.485,186.421 978.346,185.998 975.611,185.15C972.877,184.302 970.335,182.896 967.985,180.931C965.636,178.967 963.826,176.077 962.555,172.263C961.284,168.449 960.648,163.845 960.648,158.451L960.648,127.592L977.402,127.592Z" style="fill:#fff;fill-rule:nonzero;"/><path d="M1053.52,113.801L1053.52,127.592L1067.96,127.592L1067.96,141.462L1053.4,141.462L1053.4,163.731C1053.4,168.816 1055.56,171.359 1059.87,171.359C1062.65,171.359 1064.96,170.897 1066.81,169.972L1070.62,183.841C1067.46,185.151 1063.45,185.999 1058.6,186.384C1051.9,186.692 1046.61,185.093 1042.71,181.588C1038.83,178.082 1036.88,172.129 1036.88,163.731L1036.88,141.462L1026.71,141.462L1026.71,127.592L1036.88,127.592L1036.88,113.801L1053.52,113.801Z" style="fill:#fff;fill-rule:nonzero;"/></g><g><path d="M662.428,41.484L662.428,55.585L676.871,55.585L676.871,69.454L662.312,69.454L662.312,91.414C662.312,96.499 664.469,99.042 668.783,99.042C671.556,99.042 673.866,98.58 675.715,97.655L679.528,111.524C676.37,112.834 672.364,113.682 667.512,114.067C660.81,114.375 655.514,112.777 651.624,109.271C647.734,105.765 645.789,99.813 645.789,91.414L645.789,69.454L635.621,69.454L635.621,55.585L645.789,55.585L645.789,41.484L662.428,41.484Z" style="fill:#3af;fill-rule:nonzero;"/><path d="M730.687,55.275L746.863,55.275L746.863,114.105L730.918,114.105L730.918,105.205C729.223,108.21 726.681,110.445 723.292,111.909C719.903,113.373 716.59,114.105 713.355,114.105C704.651,114.105 697.564,111.369 692.095,105.898C686.626,100.428 683.891,93.069 683.891,83.823C683.891,74.731 686.645,67.488 692.153,62.094C697.66,56.701 704.612,54.004 713.009,54.004C721.559,54.004 727.452,56.624 730.687,61.863L730.687,55.275ZM715.551,68.682C711.237,68.682 707.655,70.05 704.805,72.785C701.955,75.521 700.53,79.2 700.53,83.823C700.53,88.446 701.955,92.106 704.805,94.803C707.655,97.5 711.237,98.848 715.551,98.848C720.018,98.848 723.658,97.384 726.469,94.456C729.281,91.528 730.687,88.177 730.687,84.401C730.687,80.086 729.339,76.388 726.643,73.305C723.947,70.223 720.249,68.682 715.551,68.682Z" style="fill:#3af;fill-rule:nonzero;"/><rect x="756.005" y="41.484" width="15.021" height="24.517" style="fill:#3af;fill-rule:nonzero;"/><path d="M816.512,71.225C812.507,68.528 808,67.18 802.994,67.18C800.375,67.18 798.352,67.604 796.927,68.451C795.502,69.299 794.79,70.416 794.79,71.803C794.79,75.039 797.601,76.696 803.225,76.773C806.537,76.85 809.445,77.139 811.948,77.64C814.452,78.14 817.032,78.988 819.69,80.182C822.347,81.377 824.408,83.245 825.871,85.788C827.335,88.331 828.067,91.451 828.067,95.15C828.067,100.235 826.006,104.666 821.885,108.441C817.764,112.217 811.505,114.105 803.109,114.105C793.018,114.105 784.083,110.868 776.303,104.396L783.467,92.838C789.321,97.461 796.099,99.773 803.802,99.773C806.19,99.773 808.154,99.33 809.695,98.444C811.236,97.558 811.967,96.46 811.89,95.15C811.89,92.068 808.655,90.372 802.185,90.064C799.335,89.987 796.581,89.602 793.923,88.908C791.266,88.215 788.724,87.194 786.297,85.846C783.871,84.497 781.926,82.609 780.462,80.182C778.999,77.755 778.267,74.962 778.267,71.803C778.267,65.87 780.655,61.343 785.431,58.223C790.207,55.102 796.022,53.542 802.878,53.542C811.736,53.542 819.016,56.007 824.716,60.939L816.512,71.225Z" style="fill:#3af;fill-rule:nonzero;"/></g></g><g><path d="M473.744,81.904L473.744,104.428L539.417,104.428L539.417,81.904L473.744,81.904Z" style="fill:#fff;"/><rect x="555.648" y="81.904" width="22.524" height="65.673" style="fill:#fff;"/><rect x="555.648" y="0" width="22.524" height="65.673" style="fill:#fff;"/><rect x="516.893" y="120.658" width="22.524" height="65.673" style="fill:#3af;"/><rect x="473.744" y="159.413" width="26.918" height="26.918" style="fill:#fff;"/><path d="M594.523,186.331L594.523,163.807L555.648,163.807L555.648,186.331L594.523,186.331Z" style="fill:#fff;"/><path d="M533.582,143.182L533.582,120.658L473.744,120.658L473.744,143.182L533.582,143.182Z" style="fill:#3af;"/></g></g></g></svg>