<?xml version="1.0" encoding="UTF-8" standalone="no"?><!DOCTYPE svg PUBLIC "-//W3C//DTD SVG 1.1//EN" "http://www.w3.org/Graphics/SVG/1.1/DTD/svg11.dtd"><svg width="168px" height="163px" version="1.1" xmlns="http://www.w3.org/2000/svg" xmlns:xlink="http://www.w3.org/1999/xlink" xml:space="preserve" xmlns:serif="http://www.serif.com/" style="fill-rule:evenodd;clip-rule:evenodd;stroke-linejoin:round;stroke-miterlimit:2;"><path d="M80.235,2.578C80.723,1.043 82.149,-0 83.76,0C85.37,0 86.796,1.043 87.284,2.578C92.429,18.762 101.687,47.887 104.48,56.673C104.968,58.208 106.393,59.251 108.004,59.251C117.147,59.251 147.25,59.251 163.82,59.251C165.416,59.251 166.831,60.274 167.332,61.788C167.833,63.303 167.306,64.967 166.025,65.918C152.592,75.894 128.056,94.116 120.731,99.556C119.463,100.497 118.933,102.14 119.411,103.645C122.19,112.385 131.533,141.778 136.679,157.967C137.165,159.497 136.61,161.165 135.303,162.098C133.997,163.03 132.238,163.014 130.95,162.057C117.522,152.085 93.353,134.136 85.964,128.649C84.655,127.677 82.864,127.677 81.555,128.649C74.167,134.136 49.997,152.085 36.569,162.057C35.281,163.014 33.522,163.03 32.216,162.098C30.909,161.165 30.354,159.497 30.84,157.967C35.986,141.778 45.33,112.385 48.108,103.645C48.586,102.14 48.056,100.497 46.788,99.556C39.463,94.116 14.927,75.894 1.494,65.918C0.213,64.967 -0.314,63.303 0.187,61.788C0.688,60.274 2.103,59.251 3.699,59.251C20.269,59.251 50.372,59.251 59.515,59.251C61.126,59.251 62.551,58.208 63.039,56.673C65.832,47.887 75.09,18.762 80.235,2.578Z" style="fill:url(#_Linear1);"/><defs><linearGradient id="_Linear1" x1="0" y1="0" x2="1" y2="0" gradientUnits="userSpaceOnUse" gradientTransform="matrix(9.96776e-15,-162.786,162.786,9.96776e-15,83.7595,162.786)"><stop offset="0" style="stop-color:#016ae9;stop-opacity:1"/><stop offset="1" style="stop-color:#76eeff;stop-opacity:1"/></linearGradient></defs></svg>