<?xml version="1.0" encoding="UTF-8" standalone="no"?><!DOCTYPE svg PUBLIC "-//W3C//DTD SVG 1.1//EN" "http://www.w3.org/Graphics/SVG/1.1/DTD/svg11.dtd"><svg width="168px" height="168px" version="1.1" xmlns="http://www.w3.org/2000/svg" xmlns:xlink="http://www.w3.org/1999/xlink" xml:space="preserve" xmlns:serif="http://www.serif.com/" style="fill-rule:evenodd;clip-rule:evenodd;stroke-linejoin:round;stroke-miterlimit:2;"><path d="M83.76,0C129.988,0 167.519,37.531 167.519,83.76C167.519,129.988 129.988,167.519 83.76,167.519C37.531,167.519 0,129.988 0,83.76C0,37.531 37.531,0 83.76,0ZM89.401,89.401C90.898,87.905 91.738,85.876 91.738,83.76L91.738,28.104C91.738,25.988 90.898,23.959 89.401,22.463C87.905,20.966 85.875,20.126 83.76,20.126C81.644,20.126 79.614,20.966 78.118,22.463C76.622,23.959 75.781,25.988 75.781,28.104L75.781,80.04C75.781,80.306 75.676,80.56 75.488,80.748L44.405,111.831C42.909,113.327 42.068,115.356 42.068,117.472C42.068,119.588 42.909,121.617 44.405,123.114C45.902,124.61 47.931,125.451 50.047,125.451C52.163,125.451 54.192,124.61 55.688,123.114L89.401,89.401Z" style="fill:url(#_Linear1);"/><defs><linearGradient id="_Linear1" x1="0" y1="0" x2="1" y2="0" gradientUnits="userSpaceOnUse" gradientTransform="matrix(1.02576e-14,-167.519,167.519,1.02576e-14,83.7595,167.519)"><stop offset="0" style="stop-color:#016ae9;stop-opacity:1"/><stop offset="1" style="stop-color:#76eeff;stop-opacity:1"/></linearGradient></defs></svg>