<?xml version="1.0" encoding="UTF-8" standalone="no"?><!DOCTYPE svg PUBLIC "-//W3C//DTD SVG 1.1//EN" "http://www.w3.org/Graphics/SVG/1.1/DTD/svg11.dtd"><svg width="217px" height="217px" version="1.1" xmlns="http://www.w3.org/2000/svg" xmlns:xlink="http://www.w3.org/1999/xlink" xml:space="preserve" xmlns:serif="http://www.serif.com/" style="fill-rule:evenodd;clip-rule:evenodd;stroke-linejoin:round;stroke-miterlimit:2;"><g><rect x="0" y="-0" width="216.23" height="216.23" style="fill:none;"/><path d="M0.419,53.805C0.151,53.249 0,52.626 0,51.969C0,49.636 1.894,47.742 4.227,47.742C4.295,47.742 4.363,47.744 4.43,47.747L4.428,47.742L211.871,47.742C214.278,47.742 216.23,49.694 216.23,52.101L216.23,164.129C216.23,165.285 215.771,166.394 214.953,167.211C214.136,168.029 213.027,168.488 211.871,168.488L52.007,168.488C50.258,168.488 48.678,167.442 47.995,165.833L0.416,53.805L0.419,53.805ZM142.55,65.957L118.573,122.005C120.621,130.791 124.804,137.904 131.121,143.345C140.469,151.396 152.184,155.421 166.266,155.421C180.591,155.421 192.307,150.639 201.412,141.075L184.84,124.005C182.777,126.063 180.015,127.697 176.555,128.908C173.095,130.118 169.787,130.724 166.63,130.724C160.196,130.724 154.733,128.696 150.241,124.64C145.75,120.585 143.504,115.106 143.504,108.206C143.504,100.942 145.75,95.221 150.241,91.045C154.733,86.868 160.378,84.78 167.177,84.78C173.732,84.78 179.377,86.535 184.112,90.046L198.68,73.521C190.789,65.046 179.924,60.809 166.084,60.809C157.385,60.809 149.541,62.525 142.55,65.957ZM80.352,125.276L69.79,95.675L56.861,62.806L27.361,62.806L65.966,153.06L94.738,153.06L133.343,62.806L103.843,62.806L90.914,95.675L80.352,125.276Z" style="fill:url(#_Linear1);"/></g><defs><linearGradient id="_Linear1" x1="0" y1="0" x2="1" y2="0" gradientUnits="userSpaceOnUse" gradientTransform="matrix(7.39354e-15,120.746,-120.746,7.39354e-15,108.115,47.742)"><stop offset="0" style="stop-color:#76eeff;stop-opacity:1"/><stop offset="1" style="stop-color:#016ae9;stop-opacity:1"/></linearGradient></defs></svg>