<?xml version="1.0" encoding="UTF-8" standalone="no"?><!DOCTYPE svg PUBLIC "-//W3C//DTD SVG 1.1//EN" "http://www.w3.org/Graphics/SVG/1.1/DTD/svg11.dtd"><svg width="215px" height="215px" version="1.1" xmlns="http://www.w3.org/2000/svg" xmlns:xlink="http://www.w3.org/1999/xlink" xml:space="preserve" xmlns:serif="http://www.serif.com/" style="fill-rule:evenodd;clip-rule:evenodd;stroke-linejoin:round;stroke-miterlimit:2;"><rect x="0" y="-0" width="214.575" height="214.575" style="fill:none;"/><path d="M54.062,170.505L51.209,170.077L48.658,168.866L46.561,166.973L45.073,164.502L0.696,57.531L0.057,55.217L0,52.852L0.515,50.543L1.592,48.397L3.162,46.581L5.097,45.22L7.303,44.366L9.685,44.07L204.843,44.07L206.75,44.259L208.567,44.811L210.242,45.705L211.724,46.921L212.94,48.403L213.834,50.078L214.386,51.894L214.575,53.802L214.575,160.773L214.377,162.728L213.808,164.563L212.91,166.218L211.724,167.654L210.288,168.839L208.633,169.738L206.798,170.307L204.843,170.505L54.062,170.505ZM141.285,68.388C140.544,68.755 139.958,69.374 139.633,70.134C136.7,76.978 121.672,112.111 118.915,118.557C118.625,119.234 118.558,119.987 118.723,120.705C120.641,128.864 124.528,135.488 130.392,140.577C139.091,148.012 149.992,151.729 163.096,151.729C176.426,151.729 187.327,147.279 195.799,138.38L180.38,122.496C178.459,124.411 175.861,125.932 172.585,127.058C169.422,128.185 166.372,128.748 163.435,128.748C157.448,128.748 152.364,126.889 148.184,123.172C144.005,119.341 141.915,114.216 141.915,107.794C141.915,101.035 144.005,95.74 148.184,91.91C152.364,87.967 157.617,85.996 163.943,85.996C170.043,85.996 175.296,87.629 179.702,90.896L193.258,75.519C185.915,67.633 175.804,63.691 162.926,63.691C154.939,63.691 147.725,65.256 141.285,68.388ZM81.471,125.875L71.643,98.331L58.662,62.846L31.211,62.846L68.084,151.729L94.857,151.729L132.876,62.846L105.426,62.846L91.299,98.331L81.471,125.875Z" style="fill:url(#_Linear1);"/><defs><linearGradient id="_Linear1" x1="0" y1="0" x2="1" y2="0" gradientUnits="userSpaceOnUse" gradientTransform="matrix(7.10543e-15,-126.435,126.435,7.74189e-15,122.106,170.505)"><stop offset="0" style="stop-color:#016ae9;stop-opacity:1"/><stop offset="1" style="stop-color:#76eeff;stop-opacity:1"/></linearGradient></defs></svg>